<svg width="40" height="40" viewBox="0 0 40 40" fill="none" xmlns="http://www.w3.org/2000/svg">
<path d="M0 8C0 3.58172 3.58172 0 8 0H32C36.4183 0 40 3.58172 40 8V32C40 36.4183 36.4183 40 32 40H8C3.58172 40 0 36.4183 0 32V8Z" fill="#027A48"/>
<path d="M30.5316 25.802C29.8739 21.8762 27.9942 18.2581 25.1604 15.4628C24.54 14.8592 24.2304 14.558 23.5452 14.2796C22.86 14 22.2708 14 21.0936 14H18.5064C17.3292 14 16.74 14 16.0548 14.2796C15.3708 14.558 15.0588 14.8592 14.4396 15.4628C11.6057 18.2581 9.7261 21.8762 9.06838 25.802C8.48398 29.3276 11.736 32 15.3696 32H24.2304C27.8652 32 31.1184 29.3276 30.5304 25.802" stroke="white" stroke-width="1.5" stroke-linecap="round" stroke-linejoin="round"/>
<path d="M14.1084 10.9316C13.86 10.5716 13.5012 10.082 14.2428 9.9716C15.0048 9.8564 15.7956 10.3772 16.5708 10.3676C17.2704 10.3568 17.6268 10.046 18.0108 9.602C18.414 9.1352 19.038 8 19.8 8C20.562 8 21.186 9.1352 21.5892 9.602C21.9732 10.046 22.3296 10.358 23.0292 10.3664C23.8044 10.3784 24.5952 9.8564 25.3572 9.9704C26.0988 10.082 25.74 10.5704 25.4916 10.9304L24.3732 12.5612C23.8932 13.2572 23.6544 13.6052 23.1528 13.8032C22.6512 14.0012 22.0044 14 20.7096 14H18.8904C17.5944 14 16.9476 14 16.4472 13.8032C15.9468 13.6064 15.7068 13.256 15.2268 12.56L14.1084 10.9316Z" stroke="white" stroke-width="1.5" stroke-linejoin="round"/>
<path d="M16.7504 26V19.9786C16.7504 19.8507 16.7928 19.7263 16.8711 19.6251C16.9494 19.5239 17.0591 19.4515 17.183 19.4194C17.3069 19.3873 17.4379 19.3973 17.5555 19.4477C17.6732 19.4982 17.7707 19.5862 17.8328 19.6981L21.168 25.7019C21.2301 25.8138 21.3276 25.9019 21.4452 25.9523C21.5628 26.0028 21.6939 26.0127 21.8178 25.9806C21.9416 25.9485 22.0514 25.8762 22.1297 25.775C22.208 25.6738 22.2504 25.5494 22.2504 25.4214V19.4M15.6504 21.6H23.3504M15.6504 23.8H23.3504" stroke="white" stroke-linecap="round" stroke-linejoin="round"/>
</svg>
