<svg width="64" height="64" viewBox="0 0 64 64" fill="none" xmlns="http://www.w3.org/2000/svg">
<path d="M30.5996 46.1241C30.5996 46.1241 31.5346 50.1041 36.7146 53.0641C39.9796 54.9291 46.8446 56.8641 50.3496 54.2741C54.3396 51.3241 55.1996 48.4041 55.3896 47.3291C55.5796 46.2541 55.0096 43.2891 55.0096 43.2891L48.4446 40.9541C48.4446 40.9541 37.5896 43.6041 37.3996 43.6041C37.2146 43.6091 30.5996 46.1241 30.5996 46.1241Z" fill="#E06767"/>
<path d="M55.03 48.6091C55.175 48.2341 55.265 47.9141 55.33 47.6491C54.17 47.3391 52.825 46.8391 51.605 46.3191C51.705 46.2741 51.805 46.2291 51.9 46.1791C52.5 45.8741 53.09 45.5191 53.515 44.9991C53.975 44.4391 54.185 43.7141 54.16 42.9891L48.445 40.9541C48.445 40.9541 37.59 43.6041 37.4 43.6041C37.21 43.6041 30.6 46.1191 30.595 46.1241C30.51 46.1541 31.21 47.6241 31.255 47.6991C31.89 48.8841 33.35 50.5341 34.35 51.4291C34.35 51.4291 33.89 50.3691 34.76 49.9741C35.145 49.7991 35.61 49.8841 36.005 50.0391C36.995 50.4341 38.235 51.9541 41.335 53.5841C43.44 54.6941 45.605 55.5441 46.305 55.5141C47.24 55.4741 48.935 55.0191 48.935 55.0191C48.935 55.0191 46.775 54.8141 43.305 53.1991C42.255 52.7091 38.37 50.7991 38 49.7341C37.895 49.4341 37.52 48.9041 38.2 48.6041C39.24 48.1391 42.075 50.5841 44.51 51.7041C47.41 53.0341 50.57 54.0991 50.57 54.0991C50.91 53.8391 51.23 53.5791 51.53 53.3191C49.915 52.9041 48.335 52.3341 46.81 51.6691C45.29 51.0091 43.8 50.1541 42.425 49.2141C41.55 48.6141 40.945 47.6041 41.885 47.4741C43.425 47.2591 45.415 48.7241 47.41 49.7591C49.21 50.6941 51.37 51.1241 53.395 51.3791C53.655 51.0541 54.08 50.4341 54.08 50.4341C54.08 50.4341 53.315 50.3041 51.055 49.8041C50.065 49.5841 49.105 49.2991 48.225 48.8041C47.995 48.6741 47.19 47.8491 48.29 47.4691C49.39 47.0891 50.435 47.8441 52.095 48.2291C53.76 48.6241 55.015 48.6441 55.03 48.6091Z" fill="#B05353"/>
<path d="M58.8354 27.924C58.8354 27.924 58.7104 23.874 56.5354 20.289C54.6604 17.199 51.9854 16.884 51.9854 16.884C51.9854 16.884 51.4554 14.939 49.5954 13.449C47.7354 11.959 43.9104 10.714 43.9104 10.714C36.2504 7.26401 31.4754 10.089 31.4754 10.089C31.4754 10.089 20.1154 7.38901 11.0204 15.104C11.0204 15.104 6.43035 17.264 4.55535 21.344C3.52035 23.604 3.96535 27.289 3.96535 27.289C0.780353 30.989 1.65535 36.849 5.23035 39.784C6.93535 41.179 9.04035 42.104 11.2354 42.339C12.0954 42.429 12.5304 42.224 12.8904 43.099C13.4204 44.389 13.8354 45.714 14.9004 46.639C15.9854 47.579 17.2504 48.309 18.5954 48.809C21.2054 49.774 24.1554 49.879 26.7904 48.934C27.6654 48.619 30.4704 48.589 30.4704 48.589C30.4704 48.589 31.9554 49.814 37.2254 49.619C42.4954 49.424 44.7204 47.149 45.9254 46.724C46.8504 46.399 47.9854 45.684 48.9954 45.869C49.5704 45.974 50.0854 46.269 50.6104 46.519C52.0804 47.224 53.7304 47.609 55.3504 47.459C61.4754 46.894 62.1204 39.839 61.5154 34.989C60.9054 30.094 58.8354 27.924 58.8354 27.924Z" fill="#FFB3B3"/>
<path d="M13.5952 37.4989C13.4702 37.7839 12.2202 40.5139 11.1702 40.9539C9.35521 41.7189 6.54521 39.8989 5.47021 39.3989C5.26021 39.2989 5.12021 39.5489 5.12021 39.5489C4.94521 39.7739 5.40021 40.2389 5.63021 40.4039C6.52021 41.0439 8.65521 42.4939 10.2402 42.8889C12.2852 43.3989 13.8202 42.8889 13.8202 42.8889C13.8202 42.8889 14.3802 38.7939 14.4252 38.6089C14.4702 38.4239 14.4252 36.7939 14.4252 36.7939L13.5952 37.4989Z" fill="#EA6363"/>
<path d="M31.4599 49.0539C31.4599 49.0539 30.4299 48.8939 28.8499 48.9189C27.2699 48.9439 25.0449 49.3989 25.0449 49.3989C25.0449 49.3989 26.6149 48.6839 27.3149 48.0589C28.0149 47.4289 28.1549 45.8989 28.0399 44.9889C27.9199 44.0589 27.6049 43.5889 25.2249 43.0939L32.3549 42.6989C29.9649 44.2889 29.5299 47.5639 31.4599 49.0539ZM53.0449 34.0089C51.8049 34.1739 50.5999 33.9389 49.5299 33.3039C49.0649 33.0239 49.0149 32.3639 49.4249 32.0089C49.6999 31.7739 50.0949 31.7589 50.3999 31.9589C52.1299 33.0939 53.8899 32.3489 54.8299 31.7639C57.2299 30.2689 58.4199 27.6189 58.2599 24.8389C58.7399 25.6889 59.0899 26.6289 59.1749 27.5989C59.3899 29.9539 57.6949 31.7889 55.7999 32.9739C54.8949 33.5439 53.9599 33.8889 53.0449 34.0089Z" fill="#F07371"/>
<path d="M58.4051 36.3539C57.8651 36.3539 57.2801 36.2389 56.7251 35.8989C56.1551 35.5489 55.8351 35.0789 55.5501 34.4989C55.3151 34.0239 54.9851 33.7289 54.3801 33.7739C53.9551 33.8089 53.5451 34.0489 53.1201 33.9889C53.6851 32.9889 54.5901 32.1889 55.6551 31.7539C56.1451 31.5539 56.6951 31.4289 57.1951 31.5839C57.2501 31.9339 57.0151 32.2589 56.8801 32.5889C56.6451 33.1739 56.7401 33.8739 57.1201 34.3739C57.3801 34.7139 57.8751 35.0789 58.3301 35.0489C58.6301 35.0289 58.8401 34.7739 59.1351 34.7489C60.0501 34.6839 60.2801 36.0239 59.3801 36.2339C59.0901 36.3039 58.7601 36.3539 58.4051 36.3539ZM49.6051 17.8139C49.2401 17.8589 48.8701 17.8189 48.6801 17.4989C48.4351 17.0839 48.6401 16.5639 49.0951 16.4039C50.3501 15.9639 51.7601 16.0439 52.9851 16.5339C54.0551 16.9639 54.7001 17.6939 55.1251 18.1889C55.5501 18.6839 55.8401 19.6639 55.8401 19.6639C54.7751 18.7389 54.1701 17.2839 49.6051 17.8139ZM44.8151 16.8489C43.7351 16.8039 44.7851 16.8489 44.7751 16.8489C43.0651 16.8489 41.0201 16.2589 40.7451 14.3089C40.2501 10.7589 45.4901 12.1389 47.4101 12.4039C47.4101 12.4039 45.8951 10.8489 43.9101 10.7139C42.9851 10.6539 42.0301 10.6789 41.1301 10.9189C40.1401 11.1839 39.6401 11.9289 38.7401 12.2989C38.0601 12.5739 37.2851 12.4689 36.5851 12.2589C35.9401 12.0639 33.8451 10.9389 33.7851 12.3389C33.7701 12.7239 34.0451 13.0539 34.4201 13.1089C35.9401 13.3239 38.0401 14.0039 38.8201 15.4539C39.1801 16.1189 39.2651 16.9239 39.0551 17.6489C38.9551 18.0039 38.8101 18.4589 39.1051 18.6839C39.3301 18.8589 39.6751 18.7439 39.8801 18.5439C40.0851 18.3439 40.2151 18.0739 40.4201 17.8739C41.0601 17.2439 41.6401 17.6939 42.3201 17.9339C43.1051 18.2139 43.9351 18.3489 44.7701 18.3489C44.7901 18.3489 43.3051 18.2039 44.8251 18.3489C46.3401 18.4889 45.8901 16.8939 44.8151 16.8489ZM20.7801 15.2189C19.9501 14.4689 19.5551 11.5489 21.9401 10.0439C21.9401 10.0439 20.6401 10.0889 19.5551 10.9389C18.6301 11.6639 18.4451 12.9189 18.6651 14.2439C18.7201 14.5839 18.4551 14.8939 18.1101 14.8739C16.8701 14.8089 15.6351 15.0339 14.5701 15.5239C14.1651 15.7139 14.0251 16.2239 14.2651 16.6039C14.3641 16.7576 14.5157 16.8698 14.6916 16.9195C14.8674 16.9692 15.0554 16.953 15.2201 16.8739C16.4151 16.3239 18.1551 16.0289 19.5501 16.3789C20.9651 16.7339 21.9601 17.1439 23.0701 19.0689C23.2601 19.3939 23.6701 19.5089 23.9801 19.2989C24.2201 19.1339 24.3201 18.8239 24.2201 18.5539C23.2701 15.9339 21.9001 16.2289 20.7801 15.2189ZM23.8751 24.2239C23.8484 24.1282 23.8028 24.0388 23.7411 23.9609C23.6793 23.8831 23.6027 23.8182 23.5157 23.7703C23.4286 23.7223 23.3329 23.6922 23.2341 23.6817C23.1353 23.6712 23.0353 23.6804 22.9401 23.7089C21.7401 24.0689 20.0051 23.9639 19.2301 23.1839C18.1951 20.7889 17.4101 20.3639 16.1551 19.9389C15.6551 19.7689 15.1551 20.1989 15.2051 20.7189C15.2351 21.0139 15.4301 21.2639 15.7151 21.3489C16.6051 21.6139 17.5001 22.8089 17.9601 24.0289C18.3801 25.1339 18.4301 26.5889 17.4801 27.6289C17.2351 27.8989 17.1851 28.2889 17.4001 28.5839L17.4101 28.5989C17.6851 28.9789 18.2351 29.0089 18.5551 28.6639C18.8951 28.2939 19.2501 27.8139 19.4001 27.3289C19.5551 26.8139 19.5101 26.3539 19.9551 25.9439C20.4501 25.4839 20.9201 25.5789 21.5151 25.5789C22.1251 25.5789 22.7801 25.3589 23.3551 25.1539C23.7451 25.0289 23.9951 24.6139 23.8751 24.2239ZM8.54513 31.0039C8.37513 31.0039 8.21013 30.9989 8.03513 30.9839C5.72013 30.7839 4.50513 29.1189 3.95513 27.2939C3.40513 25.4689 3.87013 23.4839 3.87013 23.4839C4.57013 28.8839 7.38513 29.4189 8.16513 29.4889C9.64013 29.6189 11.0501 28.9789 11.4351 28.0039C12.0451 26.4639 10.1751 24.9539 9.26013 24.0189C8.65513 23.3989 8.43013 22.3439 8.59013 21.5089C8.67013 21.0789 8.86013 20.6589 9.21513 20.3839C9.56513 20.1139 10.4451 19.8689 10.3251 20.6389C10.2901 20.8789 10.1351 21.0789 10.0401 21.2989C9.35513 22.8589 11.7901 24.3039 12.4551 25.4589C13.0001 26.3939 13.2401 27.5239 12.8301 28.5539C12.2501 30.0239 10.4951 31.0039 8.54513 31.0039Z" fill="#F07371"/>
<path d="M8.00992 30.6037C8.41492 30.6537 8.82992 30.5837 9.19492 30.4037C9.54492 30.2337 9.85992 29.9637 10.2449 29.9337C10.4299 29.9237 10.6599 30.0337 10.6299 30.2137C10.6199 30.2787 11.0449 30.3987 10.9899 30.4337C9.99492 31.0537 7.47492 31.6687 9.21492 36.1337C9.35492 36.4887 9.24492 36.8887 8.91992 37.0837C8.53992 37.3137 8.03492 37.1637 7.85492 36.7587C7.37992 35.7137 7.14992 34.5587 7.16492 33.4087C7.17992 32.2887 7.29492 31.3087 6.54492 30.3737C6.46492 30.2787 6.37992 30.1437 6.44492 30.0387C6.48492 29.9737 6.56492 29.9487 6.63992 29.9287C6.94992 29.8487 7.27992 29.7637 7.59492 29.8287C7.73492 29.8587 9.29992 30.7237 9.31492 30.6937M52.6149 37.8237C51.5799 37.6987 50.5149 37.7737 49.5349 38.1437C48.7049 38.4587 48.0849 39.0937 47.1299 38.8837C46.5599 38.7587 46.0549 38.3937 45.6999 37.9287C44.9499 36.9537 45.0499 35.9287 45.3299 34.8187C45.6099 33.7187 45.5799 32.4437 45.0849 31.4087C44.9549 31.1337 44.7349 30.8887 44.4499 30.7887C44.1599 30.6887 43.8049 30.7737 43.6349 31.0287C43.4649 31.2887 43.5299 31.6337 43.5899 31.9387C43.7849 32.8737 44.0349 33.8837 43.7549 34.7987C43.4899 35.6687 43.1249 36.4487 42.4999 37.1187C41.3149 38.3937 39.5949 38.9787 38.1099 38.6037C37.0149 38.3287 36.1299 37.5637 35.5349 36.3937C35.3249 35.4787 35.1049 34.2887 33.9699 34.1587C33.7399 34.1337 33.4899 34.1687 33.3149 34.3137C33.1399 34.4637 33.0599 34.7037 33.0599 34.9337C33.0599 35.5087 33.6099 35.9387 33.7099 36.5037C34.0249 38.2337 32.8749 40.2137 31.1299 41.1737C29.7799 41.9187 26.0749 42.3387 22.7549 39.5537C22.6149 39.4337 22.6149 39.2037 22.4799 39.0787C22.3899 38.9987 22.2749 38.9487 22.1599 38.9287C21.6649 38.8337 21.1499 39.3037 21.1949 39.8037C21.2349 40.2587 21.6099 40.6087 21.9449 40.9187C22.8149 41.7287 22.4249 42.0537 22.2749 42.4887C22.2399 42.5987 22.1749 42.6987 22.1649 42.8137C22.1349 43.1337 22.6249 43.0287 22.9449 43.0037C23.2649 42.9787 23.5549 42.8037 23.8649 42.7137C24.2549 42.6037 26.0399 43.2587 26.3899 43.3337C27.4049 43.5537 27.7549 43.6537 28.6299 43.6537C29.7249 43.6537 30.6549 44.2187 31.4549 43.4687C32.5949 42.4037 33.4799 41.7087 34.4899 41.3637C34.9899 41.1937 35.5899 41.1087 36.0099 41.4337C36.3099 41.6637 36.4449 42.0487 36.5499 42.4087C36.7649 43.1487 36.9249 43.9037 37.2399 44.6087C37.5549 45.3087 38.0549 45.9637 38.7549 46.2787C38.9749 46.3787 39.2249 46.4437 39.4649 46.3887C39.7049 46.3337 39.9149 46.1287 39.9199 45.8887C39.9249 45.7237 39.8399 45.5737 39.7499 45.4387C39.4049 44.8887 38.9949 44.3787 38.6899 43.8087C38.3849 43.2387 38.1849 42.5737 38.3099 41.9387C38.5399 40.7637 39.8999 40.4337 40.8749 40.1387C41.8099 39.8537 42.7449 39.3187 43.7499 39.3737C44.3799 39.4087 45.7149 40.1437 46.1149 40.6337C46.1949 40.7337 46.2299 40.8587 46.2499 40.9887C46.4199 42.0437 45.6449 42.9937 44.9099 43.7637C44.7799 43.8987 44.6449 44.1037 44.7549 44.2587C44.7949 44.3137 44.8549 44.3437 44.9149 44.3637C45.4449 44.5687 46.0649 44.3887 46.5149 44.0437C47.5049 43.2937 47.8499 42.0087 48.6949 41.1187C49.3899 40.3937 50.3249 39.9187 51.2699 39.6087C54.6499 38.4987 54.8249 41.1587 55.4299 42.6487C56.0349 44.1387 56.9299 43.1087 56.9399 42.6987C56.9749 40.7537 55.7299 38.1937 52.6149 37.8237Z" fill="#F07371"/>
<path d="M20.96 45.719C20.445 45.689 20.105 45.154 20.315 44.679C20.65 43.919 21.28 43.164 22.095 42.584C23.335 41.704 24.575 41.544 25.82 41.899L26.075 43.169C25.27 42.939 23.83 43.194 22.965 43.809C22.34 44.254 21.91 44.799 21.7 45.254C21.565 45.549 21.28 45.739 20.96 45.719Z" fill="#F07371"/>
<path d="M53.3402 22.674C53.2452 22.039 52.7502 21.449 52.1102 21.429C51.7952 21.419 51.4452 21.584 51.3602 21.889C51.3202 22.024 51.3402 22.174 51.3452 22.314C51.3852 23.354 50.5502 24.359 49.5202 24.504C48.3552 24.669 47.4952 23.949 46.6152 23.349C45.7752 22.779 44.7252 22.394 43.7552 22.119C41.1702 21.394 38.9452 21.879 37.2502 24.014C36.6202 24.809 36.0202 25.679 35.1352 26.169C33.7452 26.939 30.8102 26.994 29.9452 25.484C28.8102 23.509 28.7702 17.439 32.4102 18.129C33.5352 18.344 34.3702 19.319 34.4502 20.044C34.5002 20.504 34.2152 20.904 33.8502 21.214C33.7157 21.3293 33.6268 21.4888 33.5993 21.6638C33.5718 21.8389 33.6076 22.018 33.7002 22.169C33.9402 22.564 34.4802 22.649 34.8302 22.354C35.8552 21.474 36.0152 20.549 35.9402 19.879C35.7052 17.744 33.3002 16.539 31.3902 16.484C30.9702 16.469 30.4852 16.334 30.3252 15.939C30.2552 15.769 30.2652 15.584 30.2502 15.404C30.1502 14.129 28.8452 12.744 27.8252 12.084C27.4502 11.839 26.9452 11.999 26.7502 12.399C26.5852 12.744 26.7152 13.149 27.0352 13.359C28.0052 13.999 28.5952 14.929 28.7902 16.129C29.0102 17.509 28.7102 18.919 28.1302 20.174C27.8402 20.804 27.4852 21.414 27.0702 21.974C26.7152 22.459 26.2102 22.784 25.9802 23.364C25.9552 23.429 25.9302 23.499 25.9502 23.564C25.9852 23.689 26.1402 23.724 26.2702 23.729C26.6402 23.744 27.0102 23.664 27.3402 23.509C27.1502 24.244 27.6402 24.959 28.0452 25.599C28.4502 26.239 28.7752 27.109 28.3152 27.714C28.2952 27.739 28.2702 27.764 28.2502 27.794C27.2652 28.209 26.3152 28.774 25.5752 29.554C24.3002 30.904 23.3552 32.119 21.4902 32.719C19.8402 33.254 18.0052 33.189 16.4002 32.544C16.0902 32.419 15.7752 32.274 15.4402 32.284C15.1052 32.294 14.7502 32.529 14.7402 32.864C14.7352 33.034 14.8202 33.189 14.8952 33.344C15.7452 35.069 14.1852 36.189 13.5202 37.689C12.8952 39.089 12.5752 40.624 12.5752 42.159C12.5752 43.834 13.1502 45.054 15.2252 47.184C16.1652 48.144 17.3952 48.714 18.4302 49.049C18.7552 49.154 18.9602 48.709 18.6702 48.524C16.5352 47.164 16.2002 45.959 15.5502 44.719C13.9902 41.734 15.6952 37.184 18.6302 34.874C19.7652 33.984 21.3752 34.054 22.7452 34.524C24.2152 35.029 25.0852 36.109 26.1902 37.114C26.4902 37.389 26.8752 37.684 27.2602 37.564C27.6102 37.459 27.7852 37.044 27.7452 36.684C27.7052 36.324 27.5002 36.004 27.3052 35.699C27.0902 35.364 26.8752 35.029 26.6552 34.694C26.3702 34.254 26.0752 33.794 25.9852 33.274C25.8852 32.709 26.3852 30.754 31.1352 29.544C31.9402 29.339 32.7602 29.429 33.5702 29.659C34.6602 29.969 35.4402 30.769 36.3552 31.394C36.6102 31.569 36.8902 31.754 37.2002 31.764C37.5902 31.779 37.9702 31.484 38.0502 31.099C38.1602 30.569 37.7602 30.094 37.4952 29.624C36.6152 28.074 37.6402 26.004 38.9352 25.014C40.0952 24.134 41.6202 23.809 43.0652 23.959C45.2652 24.184 47.4352 25.654 47.9402 27.804C48.0552 28.289 48.1952 28.914 48.6902 28.979C49.2402 29.054 49.5352 28.319 49.4802 27.764C49.4252 27.209 49.2452 26.584 49.5902 26.144C49.7502 25.944 49.9902 25.829 50.2252 25.724C50.9002 25.429 51.6052 25.184 52.2102 24.759C52.8152 24.339 53.3202 23.694 53.3652 22.959C53.3602 22.874 53.3552 22.774 53.3402 22.674Z" fill="#EA6363"/>
<path d="M26.2648 23.7241C26.6348 23.7391 27.0048 23.6591 27.3348 23.5041C27.1448 24.2391 27.6348 24.9541 28.0398 25.5941C28.3348 26.0641 28.7448 26.8991 28.2998 27.7541C28.2998 27.7541 28.9698 27.3791 30.0548 27.0641C31.1398 26.7491 32.1998 26.6791 32.1998 26.6791C31.4298 26.5191 30.2898 26.0841 29.9398 25.4791C28.8048 23.5041 28.7648 17.4341 32.4048 18.1241C33.5298 18.3391 34.3648 19.3141 34.4448 20.0391C34.4948 20.4991 34.2098 20.8991 33.8448 21.2091C33.7103 21.3244 33.6213 21.4839 33.5938 21.659C33.5663 21.834 33.6021 22.0131 33.6948 22.1641C33.9348 22.5591 34.4748 22.6441 34.8248 22.3491C35.8498 21.4691 36.0098 20.5441 35.9348 19.8741C35.6998 17.7391 33.2948 16.5341 31.3848 16.4791C30.9648 16.4641 30.4798 16.3291 30.3198 15.9341C30.2498 15.7641 30.2598 15.5791 30.2448 15.3991C30.1448 14.1241 28.8398 12.7391 27.8198 12.0791C27.4448 11.8341 26.9398 11.9941 26.7448 12.3941C26.5798 12.7391 26.7098 13.1441 27.0298 13.3541C27.9998 13.9941 28.5898 14.9241 28.7848 16.1241C29.0048 17.5041 28.7048 18.9141 28.1248 20.1691C27.8348 20.7991 27.4798 21.4091 27.0648 21.9691C26.7098 22.4541 26.2048 22.7791 25.9748 23.3591C25.9498 23.4241 25.9248 23.4941 25.9448 23.5591C25.9798 23.6841 26.1348 23.7191 26.2648 23.7241Z" fill="#F07371"/>
</svg>
