<svg width="56" height="56" viewBox="0 0 56 56" fill="none" xmlns="http://www.w3.org/2000/svg">
<path d="M0 8C0 3.58172 3.58172 0 8 0H48C52.4183 0 56 3.58172 56 8V48C56 52.4183 52.4183 56 48 56H8C3.58172 56 0 52.4183 0 48V8Z" fill="#FFF7E0"/>
<path d="M29.6471 34.2617H25.7586C24.969 34.2617 24.3192 34.9015 24.3292 35.6911V39.5796C24.3292 40.3693 24.969 41.009 25.7586 41.009H26.0065C26.1751 41.3095 26.4206 41.5596 26.7178 41.7337C27.0151 41.9078 27.3534 41.9995 27.6979 41.9995C28.0423 41.9995 28.3806 41.9078 28.6779 41.7337C28.9751 41.5596 29.2207 41.3095 29.3892 41.009H29.6471C30.4368 41.009 31.0765 40.3693 31.0765 39.5796V35.6911C31.0765 34.9015 30.4368 34.2617 29.6471 34.2617Z" fill="#9B9B9B"/>
<path d="M30.1566 35.1215C30.3965 35.1215 30.5865 34.9416 30.6065 34.7117C30.6764 33.852 31.0463 31.7629 33.0655 29.5238C34.0291 28.7653 34.8207 27.8108 35.3876 26.7234C35.9546 25.636 36.284 24.4406 36.3541 23.2163C36.3741 22.9764 36.3841 22.8165 36.3841 22.7165V22.6165C36.3242 17.8385 32.4557 14 27.6876 14C25.3993 13.9999 23.2034 14.9027 21.5769 16.5123C19.9504 18.122 19.0248 20.3084 19.0011 22.5965C19.0011 22.5965 18.9911 22.8365 19.0311 23.2363C19.191 25.7753 20.4305 28.0244 22.3198 29.5138C24.339 31.7629 24.7388 33.852 24.8088 34.7117C24.8288 34.9416 25.0187 35.1215 25.2586 35.1215H30.1566Z" fill="#FCD53F"/>
<path d="M27.6972 22.6969C29.3166 22.6969 30.636 24.0063 30.656 25.6257V25.7057C30.656 25.7356 30.656 25.7756 30.646 25.8356C30.5961 26.6753 30.1862 27.4649 29.5265 27.9847L29.4565 28.0347L29.3965 28.0947C28.297 29.3142 28.0671 32.413 28.0271 34.1123H27.3773C27.3274 32.413 27.0875 29.3142 25.9879 28.0947L25.9279 28.0347L25.858 27.9847C25.5278 27.7236 25.2571 27.3951 25.0641 27.021C24.871 26.6469 24.76 26.236 24.7384 25.8156C24.7384 25.7756 24.7284 25.7456 24.7284 25.7256V25.6357C24.7584 24.0163 26.0879 22.6969 27.6972 22.6969ZM27.6972 21.6973C26.8747 21.6976 26.0726 21.9541 25.4026 22.4312C24.7325 22.9083 24.2278 23.5824 23.9584 24.3596C23.6891 25.1368 23.6686 25.9786 23.8997 26.768C24.1309 27.5574 24.6022 28.2552 25.2482 28.7644C26.4477 30.1039 26.3877 35.1219 26.3877 35.1219H29.0267C29.0267 35.1219 28.9467 30.1039 30.1562 28.7744C31.0159 28.0947 31.5857 27.0651 31.6556 25.8956C31.6656 25.7856 31.6656 25.7157 31.6656 25.6657V25.6257C31.6551 24.5801 31.2323 23.581 30.4893 22.8454C29.7462 22.1098 28.7428 21.6972 27.6972 21.6973Z" fill="#FFB02E"/>
<path d="M31.1624 37.0438C31.2271 37.0325 31.2889 37.0086 31.3444 36.9734C31.3999 36.9382 31.4479 36.8924 31.4857 36.8387C31.5234 36.785 31.5503 36.7243 31.5646 36.6602C31.5789 36.5961 31.5805 36.5298 31.5692 36.4651C31.5579 36.4003 31.534 36.3385 31.4988 36.283C31.4636 36.2275 31.4178 36.1796 31.3641 36.1418C31.3103 36.104 31.2497 36.0772 31.1856 36.0628C31.1215 36.0485 31.0552 36.0469 30.9904 36.0582L24.2531 37.2377C24.1884 37.249 24.1266 37.273 24.0711 37.3082C24.0156 37.3434 23.9676 37.3891 23.9299 37.4429C23.8921 37.4966 23.8653 37.5573 23.8509 37.6214C23.8366 37.6855 23.835 37.7518 23.8463 37.8165C23.8576 37.8812 23.8815 37.9431 23.9167 37.9986C23.9519 38.054 23.9977 38.102 24.0514 38.1398C24.1052 38.1776 24.1658 38.2044 24.2299 38.2187C24.2941 38.2331 24.3604 38.2346 24.4251 38.2234L31.1624 37.0438ZM31.1124 39.193C31.2415 39.1686 31.3558 39.0944 31.4305 38.9864C31.5053 38.8784 31.5346 38.7453 31.512 38.6159C31.4894 38.4865 31.4167 38.3712 31.3098 38.2949C31.2028 38.2186 31.0702 38.1876 30.9405 38.2084L24.2931 39.3779C24.2263 39.3867 24.1619 39.409 24.1039 39.4434C24.0459 39.4777 23.9954 39.5235 23.9556 39.5778C23.9157 39.6322 23.8872 39.6941 23.8719 39.7598C23.8566 39.8254 23.8547 39.8935 23.8664 39.9599C23.8781 40.0263 23.903 40.0897 23.9398 40.1462C23.9767 40.2027 24.0245 40.2512 24.0805 40.2887C24.1366 40.3262 24.1996 40.352 24.2659 40.3645C24.3321 40.377 24.4002 40.376 24.4661 40.3615L31.1124 39.193Z" fill="#D3D3D3"/>
<path d="M25.7888 17.4384C24.6792 19.3576 25.239 21.7567 27.0383 22.7863C28.8375 23.8158 31.1866 23.1061 32.2961 21.1869C33.4057 19.2677 32.8459 16.8686 31.0466 15.839C29.2474 14.8095 26.8983 15.5192 25.7888 17.4384Z" fill="#FFF478"/>
</svg>
