<svg width="109" height="105" viewBox="0 0 109 105" fill="none" xmlns="http://www.w3.org/2000/svg">
<path d="M172 11.9059C172 63.3139 133.496 104.988 86 104.988C38.5035 104.988 0 63.3139 0 11.9059C0 -39.5021 38.5035 -81.1765 86 -81.1765C133.496 -81.1765 172 -39.5021 172 11.9059ZM10.32 11.9059C10.32 57.1449 44.2031 93.8184 86 93.8184C127.797 93.8184 161.68 57.1449 161.68 11.9059C161.68 -33.3331 127.797 -70.0066 86 -70.0066C44.2031 -70.0066 10.32 -33.3331 10.32 11.9059Z" fill="#039855"/>
<path d="M151.765 11.9059C151.765 51.2179 122.321 83.0865 86 83.0865C49.6792 83.0865 20.2353 51.2179 20.2353 11.9059C20.2353 -27.4061 49.6792 -59.2747 86 -59.2747C122.321 -59.2747 151.765 -27.4061 151.765 11.9059ZM30.1 11.9059C30.1 45.3211 55.1273 72.4094 86 72.4094C116.873 72.4094 141.9 45.3211 141.9 11.9059C141.9 -21.5093 116.873 -48.5976 86 -48.5976C55.1273 -48.5976 30.1 -21.5093 30.1 11.9059Z" fill="#039855"/>
<path d="M130.686 11.9059C130.686 38.6179 110.68 60.2722 86 60.2722C61.3204 60.2722 41.3137 38.6179 41.3137 11.9059C41.3137 -14.8061 61.3204 -36.4604 86 -36.4604C110.68 -36.4604 130.686 -14.8061 130.686 11.9059ZM50.251 11.9059C50.251 33.2755 66.2564 50.5989 86 50.5989C105.744 50.5989 121.749 33.2755 121.749 11.9059C121.749 -9.46369 105.744 -26.7872 86 -26.7872C66.2564 -26.7872 50.251 -9.46369 50.251 11.9059Z" fill="#039855"/>
<path d="M110.451 11.9059C110.451 26.5219 99.5039 38.3705 86 38.3705C72.4961 38.3705 61.549 26.5219 61.549 11.9059C61.549 -2.7101 72.4961 -14.5587 86 -14.5587C99.5039 -14.5587 110.451 -2.7101 110.451 11.9059ZM69.3733 11.9059C69.3733 21.8448 76.8173 29.9018 86 29.9018C95.1827 29.9018 102.627 21.8448 102.627 11.9059C102.627 1.96703 95.1827 -6.09003 86 -6.09003C76.8173 -6.09003 69.3733 1.96703 69.3733 11.9059Z" fill="#039855"/>
</svg>
