<svg width="40" height="40" viewBox="0 0 40 40" fill="none" xmlns="http://www.w3.org/2000/svg">
<path d="M0 8C0 3.58172 3.58172 0 8 0H32C36.4183 0 40 3.58172 40 8V32C40 36.4183 36.4183 40 32 40H8C3.58172 40 0 36.4183 0 32V8Z" fill="#EC4A0A"/>
<path d="M11.9085 15.6364C12.7765 15.6364 13.6089 15.2916 14.2226 14.6778C14.8364 14.0641 15.1812 13.2317 15.1812 12.3637C15.1812 11.4957 14.8364 10.6633 14.2226 10.0495C13.6089 9.43575 12.7765 9.09094 11.9085 9.09094C11.0405 9.09094 10.2081 9.43575 9.5943 10.0495C8.98055 10.6633 8.63574 11.4957 8.63574 12.3637C8.63574 13.2317 8.98055 14.0641 9.5943 14.6778C10.2081 15.2916 11.0405 15.6364 11.9085 15.6364Z" stroke="white" stroke-width="1.5" stroke-linecap="round" stroke-linejoin="round"/>
<path d="M9.88158 14.9328C9.40456 15.8412 9.05876 16.8127 8.85449 17.8182M14.4781 10.3362C15.3866 9.85919 16.3581 9.51339 17.3636 9.30912M27.1818 15.6364C28.0497 15.6364 28.8822 15.2916 29.4959 14.6778C30.1097 14.0641 30.4545 13.2317 30.4545 12.3637C30.4545 11.4957 30.1097 10.6633 29.4959 10.0495C28.8822 9.43575 28.0497 9.09094 27.1818 9.09094C26.3138 9.09094 25.4814 9.43575 24.8676 10.0495C24.2538 10.6633 23.909 11.4957 23.909 12.3637C23.909 13.2317 24.2538 14.0641 24.8676 14.6778C25.4814 15.2916 26.3138 15.6364 27.1818 15.6364Z" stroke="white" stroke-width="1.5" stroke-linecap="round" stroke-linejoin="round"/>
<path d="M24.613 10.3362C23.7046 9.85915 22.7331 9.51335 21.7275 9.30908M29.209 14.9327C29.6862 15.8411 30.0322 16.8126 30.2366 17.8182M27.1821 30.9091C28.0501 30.9091 28.8825 30.5643 29.4963 29.9505C30.11 29.3368 30.4548 28.5043 30.4548 27.6364C30.4548 26.7684 30.11 25.9359 29.4963 25.3222C28.8825 24.7084 28.0501 24.3636 27.1821 24.3636C26.3141 24.3636 25.4817 24.7084 24.8679 25.3222C24.2542 25.9359 23.9094 26.7684 23.9094 27.6364C23.9094 28.5043 24.2542 29.3368 24.8679 29.9505C25.4817 30.5643 26.3141 30.9091 27.1821 30.9091Z" stroke="white" stroke-width="1.5" stroke-linecap="round" stroke-linejoin="round"/>
<path d="M29.2081 25.0673C29.6853 24.1589 30.0313 23.1874 30.2357 22.1819M24.6121 29.6633C23.7037 30.1406 22.7322 30.4865 21.7267 30.691M11.9085 30.9092C12.7765 30.9092 13.6089 30.5644 14.2226 29.9506C14.8364 29.3368 15.1812 28.5044 15.1812 27.6364C15.1812 26.7684 14.8364 25.936 14.2226 25.3223C13.6089 24.7085 12.7765 24.3637 11.9085 24.3637C11.0405 24.3637 10.2081 24.7085 9.5943 25.3223C8.98055 25.936 8.63574 26.7684 8.63574 27.6364C8.63574 28.5044 8.98055 29.3368 9.5943 29.9506C10.2081 30.5644 11.0405 30.9092 11.9085 30.9092Z" stroke="white" stroke-width="1.5" stroke-linecap="round" stroke-linejoin="round"/>
<path d="M14.4781 29.6633C15.3865 30.1405 16.358 30.4865 17.3636 30.6909M9.88158 25.0673C9.40456 24.1589 9.05876 23.1874 8.85449 22.1818M19.5454 23.2728V16.7273M16.2727 20H22.8181" stroke="white" stroke-width="1.5" stroke-linecap="round" stroke-linejoin="round"/>
</svg>
