<svg width="48" height="48" viewBox="0 0 48 48" fill="none" xmlns="http://www.w3.org/2000/svg">
<g clip-path="url(#clip0_759_6688)">
<path d="M24 47.9977C37.255 47.9977 48 37.2532 48 23.9989C48 10.7445 37.255 0 24 0C10.745 0 0 10.7445 0 23.9989C0 37.2532 10.745 47.9977 24 47.9977Z" fill="#FABC3D"/>
<path d="M22.2548 36.2165C29.0027 36.2165 34.473 30.7465 34.473 23.9989C34.473 17.2512 29.0027 11.7812 22.2548 11.7812C15.5069 11.7812 10.0366 17.2512 10.0366 23.9989C10.0366 30.7465 15.5069 36.2165 22.2548 36.2165Z" fill="#DF2C2C"/>
<path d="M22.2546 32.7257C27.0747 32.7257 30.9819 28.8187 30.9819 23.9988C30.9819 19.179 27.0747 15.272 22.2546 15.272C17.4345 15.272 13.5273 19.179 13.5273 23.9988C13.5273 28.8187 17.4345 32.7257 22.2546 32.7257Z" fill="#F0F1F1"/>
<path d="M22.2544 29.2349C25.1462 29.2349 27.4908 26.8904 27.4908 23.9988C27.4908 21.1071 25.1462 18.7627 22.2544 18.7627C19.3626 18.7627 17.0181 21.1071 17.0181 23.9988C17.0181 26.8904 19.3626 29.2349 22.2544 29.2349Z" fill="#DF2C2C"/>
<path d="M22.2546 25.7433C22.7174 25.7433 23.1614 25.5595 23.4887 25.2322C23.816 24.9049 23.9998 24.461 23.9998 23.9981C23.9998 23.5353 23.816 23.0914 23.4887 22.7641C23.1614 22.4368 22.7174 22.2529 22.2546 22.2529C21.7917 22.2529 21.3478 22.4368 21.0205 22.7641C20.6932 23.0914 20.5093 23.5353 20.5093 23.9981C20.5093 24.461 20.6932 24.9049 21.0205 25.2322C21.3478 25.5595 21.7917 25.7433 22.2546 25.7433Z" fill="#E2E4E5"/>
<path d="M30.9253 15.3942L28.4555 17.8639C27.6466 17.0408 26.6815 16.3875 25.6167 15.9424C24.5519 15.4973 23.4089 15.2694 22.2548 15.272C17.433 15.272 13.5275 19.1773 13.5275 23.9989C13.5275 26.4249 14.5181 28.6198 16.1195 30.1994L13.6497 32.669C11.4199 30.4567 10.0366 27.3892 10.0366 23.9989C10.0366 17.253 15.5086 11.7812 22.2548 11.7812C25.6453 11.7812 28.713 13.1645 30.9253 15.3942Z" fill="#FA5655"/>
<path d="M28.4554 17.8638L25.9899 20.3292C25.5034 19.8319 24.9223 19.4371 24.2808 19.168C23.6392 18.899 22.9503 18.7612 22.2546 18.7627C19.3615 18.7627 17.0183 21.1059 17.0183 23.9988C17.0183 25.4606 17.6161 26.7871 18.5848 27.7339L16.1194 30.1993C15.2969 29.3899 14.644 28.4247 14.199 27.36C13.7539 26.2954 13.5256 25.1527 13.5274 23.9988C13.5274 19.1772 17.4328 15.272 22.2546 15.272C24.6852 15.272 26.8801 16.2625 28.4554 17.8638Z" fill="white"/>
<path d="M25.9897 20.3291L23.5199 22.7988C23.3608 22.6251 23.1681 22.4854 22.9535 22.3881C22.7389 22.2908 22.5069 22.238 22.2713 22.2329C22.0358 22.2277 21.8016 22.2703 21.583 22.3581C21.3643 22.4458 21.1657 22.5769 20.9991 22.7435C20.8326 22.9101 20.7014 23.1087 20.6136 23.3273C20.5259 23.546 20.4833 23.7801 20.4885 24.0157C20.4936 24.2512 20.5464 24.4832 20.6437 24.6978C20.741 24.9124 20.8807 25.105 21.0544 25.2642L18.5846 27.7339C18.0873 27.2474 17.6925 26.6663 17.4234 26.0248C17.1544 25.3833 17.0165 24.6944 17.0181 23.9988C17.0181 21.1058 19.3614 18.7627 22.2544 18.7627C23.7163 18.7627 25.0428 19.3604 25.9897 20.3291Z" fill="#FA5655"/>
<path d="M23.5201 22.7988L22.595 23.7238C22.5566 23.6759 22.5084 23.6366 22.4537 23.6084C22.399 23.5803 22.339 23.5641 22.2776 23.5607C22.2161 23.5574 22.1547 23.567 22.0973 23.589C22.0398 23.6109 21.9877 23.6448 21.9442 23.6883C21.9007 23.7317 21.8669 23.7839 21.8449 23.8413C21.8229 23.8988 21.8133 23.9602 21.8166 24.0216C21.82 24.083 21.8363 24.143 21.8644 24.1977C21.8925 24.2524 21.9318 24.3006 21.9798 24.3391L21.0547 25.2641C20.8809 25.105 20.7412 24.9124 20.644 24.6978C20.5467 24.4832 20.4939 24.2512 20.4887 24.0156C20.4835 23.7801 20.5261 23.546 20.6139 23.3273C20.7017 23.1087 20.8328 22.9101 20.9994 22.7435C21.166 22.5769 21.3646 22.4458 21.5832 22.358C21.8019 22.2703 22.036 22.2277 22.2716 22.2328C22.5071 22.238 22.7392 22.2908 22.9538 22.3881C23.1683 22.4854 23.361 22.6251 23.5201 22.7988Z" fill="white"/>
<path d="M22.2544 23.9987C22.7728 24.3443 23.6874 24.7741 24.8726 25.121V22.876C23.6599 23.2316 22.7462 23.671 22.2544 23.9987Z" fill="#3E3E3F"/>
<path d="M24.8726 22.8761V25.1211C25.5245 25.3118 26.2589 25.4758 27.0544 25.5884V22.4092C26.3168 22.512 25.5876 22.6681 24.8726 22.8761Z" fill="#FACB1B"/>
<path d="M24.8726 22.876C23.6599 23.2316 22.7462 23.6706 22.2544 23.9987H24.8726V22.876Z" fill="#818284"/>
<path d="M37.9638 19.1987C33.8925 19.1987 32.0624 21.4472 31.2909 22.3884C30.6094 22.3024 29.9234 22.2572 29.2365 22.2531C28.5065 22.2539 27.7774 22.3059 27.0547 22.4089V25.5881C27.7411 25.6849 28.4716 25.7438 29.2365 25.7438C29.974 25.7438 30.6569 25.691 31.2905 25.6081C32.0615 26.5489 33.8916 28.7982 37.9638 28.7982C37.9638 27.1982 37.6841 25.6609 36.0582 23.9985C37.6841 22.336 37.9638 20.7988 37.9638 19.1987Z" fill="#3E3E3F"/>
<path d="M36.0582 23.9985C37.6841 22.336 37.9638 20.7988 37.9638 19.1987C33.8916 19.1987 32.0615 21.448 31.2905 22.3888C30.6095 22.2989 29.9234 22.2535 29.2365 22.2531C28.5065 22.2539 27.7774 22.3059 27.0547 22.4089V23.9985H36.0582Z" fill="#818284"/>
<path d="M27.0548 23.9991V22.4092C26.3171 22.5121 25.5878 22.6681 24.8726 22.8762V23.9991H27.0548Z" fill="#FBE158"/>
</g>
<defs>
<clipPath id="clip0_759_6688">
<rect width="48" height="48" fill="white"/>
</clipPath>
</defs>
</svg>
