<svg width="40" height="39" viewBox="0 0 40 39" fill="none" xmlns="http://www.w3.org/2000/svg">
<path d="M21.4645 0.760762L38.4327 17.6635C38.8996 18.152 39.1548 18.8052 39.1426 19.4809C39.1304 20.1566 38.8519 20.8001 38.3677 21.2715L21.4645 38.2392C21.2233 38.4804 20.937 38.6718 20.6219 38.8023C20.3068 38.9328 19.969 39 19.6279 39C19.2868 39 18.9491 38.9328 18.6339 38.8023C18.3188 38.6718 18.0325 38.4804 17.7913 38.2392L0.888111 21.2715C0.412497 20.7954 0.139988 20.1535 0.127864 19.4806C0.11574 18.8078 0.364946 18.1564 0.823098 17.6635L17.7913 0.760762C18.0325 0.519572 18.3188 0.328249 18.6339 0.197716C18.9491 0.0671843 19.2868 0 19.6279 0C19.969 0 20.3068 0.0671843 20.6219 0.197716C20.937 0.328249 21.2233 0.519572 21.4645 0.760762Z" fill="#1576D2"/>
<path d="M19.8732 2.09371L35.6387 17.8262C35.8543 18.0495 36.0238 18.313 36.1375 18.6017C36.2512 18.8905 36.307 19.1988 36.3015 19.5091C36.2961 19.8194 36.2296 20.1256 36.1058 20.4102C35.982 20.6948 35.8034 20.9522 35.5802 21.1677L35.5737 21.1743L19.8407 36.9393C19.3888 37.3917 18.7758 37.6461 18.1364 37.6468C17.497 37.6474 16.8835 37.3941 16.4308 36.9425L16.4275 36.9393L0.727056 21.1743C0.27463 20.7397 0.0132938 20.1432 0.000493261 19.516C-0.0123073 18.8888 0.224476 18.2822 0.658793 17.8295L0.662044 17.8262L16.46 2.09371C17.4027 1.15106 18.9273 1.15106 19.8732 2.09371Z" fill="#1D90FC"/>
<path d="M16.036 4.43421C15.5159 4.79177 5.27645 14.9334 5.27645 14.9334C5.27645 14.9334 4.43129 15.681 5.0164 16.4611C5.569 17.1762 6.41417 16.8187 6.83675 16.4286C7.25933 16.0386 16.4911 7.00212 16.8811 6.54705C17.0709 6.29389 17.1891 5.99437 17.2234 5.67986C17.2578 5.36534 17.2069 5.04738 17.0762 4.75926C16.8161 4.23918 16.3936 4.17417 16.036 4.43421Z" fill="#52ABFF"/>
<path d="M3.88032 19.4217C4.47276 19.4217 4.95302 18.9415 4.95302 18.349C4.95302 17.7566 4.47276 17.2764 3.88032 17.2764C3.28788 17.2764 2.80762 17.7566 2.80762 18.349C2.80762 18.9415 3.28788 19.4217 3.88032 19.4217Z" fill="#52ABFF"/>
</svg>
