<svg width="53" height="52" viewBox="0 0 53 52" fill="none" xmlns="http://www.w3.org/2000/svg">
<path d="M28.6194 1.01435L51.2436 23.5513C51.8662 24.2027 52.2063 25.0736 52.1901 25.9745C52.1739 26.8754 51.8026 27.7335 51.157 28.362L28.6194 50.9857C28.2978 51.3072 27.916 51.5623 27.4958 51.7364C27.0757 51.9104 26.6253 52 26.1706 52C25.7158 52 25.2654 51.9104 24.8453 51.7364C24.4251 51.5623 24.0433 51.3072 23.7218 50.9857L1.18415 28.362C0.549996 27.7272 0.18665 26.8713 0.170485 25.9741C0.15432 25.077 0.486594 24.2085 1.09746 23.5513L23.7218 1.01435C24.0433 0.692763 24.4251 0.437665 24.8453 0.263622C25.2654 0.089579 25.7158 0 26.1706 0C26.6253 0 27.0757 0.089579 27.4958 0.263622C27.916 0.437665 28.2978 0.692763 28.6194 1.01435Z" fill="#1576D2"/>
<path d="M26.4976 2.79177L47.5182 23.7684C47.8057 24.0661 48.0317 24.4175 48.1833 24.8025C48.3349 25.1875 48.4093 25.5986 48.402 26.0123C48.3948 26.426 48.3061 26.8343 48.1411 27.2137C47.9761 27.5932 47.7379 27.9364 47.4402 28.2238L47.4316 28.2325L26.4542 49.2525C25.8518 49.8557 25.0344 50.195 24.1819 50.1958C23.3293 50.1966 22.5113 49.8589 21.9077 49.2568L21.9034 49.2525L0.969408 28.2325C0.366173 27.653 0.017725 26.8578 0.000657682 26.0215C-0.0164097 25.1852 0.299301 24.3764 0.878391 23.7728L0.882725 23.7684L21.9467 2.79177C23.2036 1.5349 25.2363 1.5349 26.4976 2.79177Z" fill="#1D90FC"/>
<path d="M21.381 5.91196C20.6875 6.3887 7.03494 19.9109 7.03494 19.9109C7.03494 19.9109 5.90806 20.9077 6.68821 21.9478C7.42501 22.9013 8.55189 22.4246 9.11533 21.9045C9.67878 21.3844 21.9878 9.33584 22.5079 8.72907C22.7609 8.39152 22.9185 7.99217 22.9643 7.57282C23.01 7.15346 22.9422 6.72952 22.7679 6.34536C22.4212 5.65192 21.8578 5.56523 21.381 5.91196Z" fill="#52ABFF"/>
<path d="M5.17441 25.8956C5.96433 25.8956 6.60468 25.2553 6.60468 24.4654C6.60468 23.6755 5.96433 23.0352 5.17441 23.0352C4.38449 23.0352 3.74414 23.6755 3.74414 24.4654C3.74414 25.2553 4.38449 25.8956 5.17441 25.8956Z" fill="#52ABFF"/>
</svg>
