<svg width="41" height="52" viewBox="0 0 41 52" fill="none" xmlns="http://www.w3.org/2000/svg">
<path d="M8.06893 15.9168C7.82193 18.5514 7.6486 23.214 9.20424 25.1986C9.20424 25.1986 8.47192 20.0767 15.0368 13.6505C17.6801 11.0636 18.2911 7.54497 17.3681 4.90603C16.8438 3.41106 15.8861 2.17609 15.0541 1.31377C14.5688 0.806785 14.9415 -0.0295299 15.6478 0.000802761C19.9204 0.191465 26.8449 1.37877 29.7872 8.76261C31.0785 12.0039 31.1739 15.3535 30.5585 18.7594C30.1685 20.9347 28.7819 25.7706 31.9452 26.3642C34.2028 26.7889 35.2948 24.9949 35.7844 23.7036C35.9881 23.1663 36.6944 23.032 37.0758 23.4609C40.889 27.7985 41.214 32.9074 40.4254 37.3056C38.9001 45.8075 30.2899 51.9953 21.736 51.9953C11.0502 51.9953 2.54402 45.8811 0.338391 34.814C-0.549927 30.3465 -0.0992672 21.5067 6.79061 15.2668C7.30194 14.7988 8.13826 15.2148 8.06893 15.9168Z" fill="url(#paint0_radial_419_8351)"/>
<path d="M25.6388 31.8156C21.6999 26.7457 23.4636 20.9609 24.4299 18.6556C24.5599 18.3523 24.2132 18.0663 23.9402 18.2526C22.2459 19.4052 18.775 22.1178 17.1587 25.9354C14.9704 31.0963 15.1264 33.6226 16.422 36.7079C17.202 38.5668 16.2963 38.9611 15.8413 39.0305C15.3994 39.0998 14.992 38.8051 14.667 38.4975C13.7323 37.5997 13.066 36.4594 12.7431 35.2042C12.6737 34.9356 12.3227 34.8619 12.1624 35.0829C10.9491 36.7599 10.3208 39.4508 10.2904 41.3531C10.1951 47.2333 15.0527 51.9999 20.9286 51.9999C28.3341 51.9999 33.729 43.81 29.4738 36.9635C28.2388 34.9702 27.0775 33.6659 25.6388 31.8156Z" fill="url(#paint1_radial_419_8351)"/>
<defs>
<radialGradient id="paint0_radial_419_8351" cx="0" cy="0" r="1" gradientTransform="matrix(-30.5872 -0.132748 -0.218087 50.1872 19.6196 52.13)" gradientUnits="userSpaceOnUse">
<stop offset="0.314" stop-color="#FF9800"/>
<stop offset="0.662" stop-color="#FF6D00"/>
<stop offset="0.972" stop-color="#F44336"/>
</radialGradient>
<radialGradient id="paint1_radial_419_8351" cx="0" cy="0" r="1" gradientTransform="matrix(-0.323255 32.0021 24.0841 0.24324 21.3359 21.6925)" gradientUnits="userSpaceOnUse">
<stop offset="0.214" stop-color="#FFF176"/>
<stop offset="0.328" stop-color="#FFF27D"/>
<stop offset="0.487" stop-color="#FFF48F"/>
<stop offset="0.672" stop-color="#FFF7AD"/>
<stop offset="0.793" stop-color="#FFF9C4"/>
<stop offset="0.822" stop-color="#FFF8BD" stop-opacity="0.804"/>
<stop offset="0.863" stop-color="#FFF6AB" stop-opacity="0.529"/>
<stop offset="0.91" stop-color="#FFF38D" stop-opacity="0.209"/>
<stop offset="0.941" stop-color="#FFF176" stop-opacity="0"/>
</radialGradient>
</defs>
</svg>
