<svg width="48" height="48" viewBox="0 0 48 48" fill="none" xmlns="http://www.w3.org/2000/svg">
<path fill-rule="evenodd" clip-rule="evenodd" d="M4.22417 4.53601C4.14192 7.20382 4 13.3502 4 24C4 34.6498 4.14191 40.7962 4.22417 43.464C4.25937 44.6058 4.87466 45.8016 6.2156 45.9469C6.51971 45.9799 6.87128 46 7.2766 46C7.68191 46 8.03348 45.9799 8.33759 45.9469C9.67853 45.8016 10.2939 44.6058 10.3291 43.464C10.4113 40.7962 10.5532 34.6498 10.5532 24C10.5532 13.3502 10.4113 7.20382 10.3291 4.53601C10.2939 3.39425 9.67852 2.19837 8.33759 2.05305C8.03347 2.02009 7.68191 2 7.2766 2C6.87128 2 6.51972 2.02009 6.21561 2.05305C4.87467 2.19837 4.25937 3.39425 4.22417 4.53601ZM12.8937 24.0002C12.8937 26.3465 12.8869 28.4753 12.8753 30.3973C14.2214 30.6405 15.4685 30.9653 16.7616 31.302C16.9147 31.3419 17.0685 31.3819 17.223 31.4221C20.0475 32.1542 23.134 32.8932 27.8724 32.8932C32.975 32.8932 37.6025 31.5625 40.0881 30.6912C41.4728 30.2057 42.4854 29.0516 42.7076 27.5812C42.9937 25.6883 43.3192 22.3361 43.3192 16.8787C43.3192 12.0013 43.0593 8.80562 42.7998 6.83031C42.5611 5.01365 40.8067 4.06317 39.1193 4.47985C36.2029 5.20003 31.4558 6.21293 27.8724 6.21293C23.2747 6.21293 20.294 5.1823 17.5049 4.13635C17.3456 4.07661 17.1868 4.01675 17.0282 3.95699C15.4747 3.37153 13.9438 2.79455 12.2034 2.42055C12.5091 3.12321 12.6497 3.85291 12.6685 4.46406C12.7515 7.15925 12.8937 13.3299 12.8937 24.0002Z" fill="url(#paint0_linear_759_6730)"/>
<defs>
<linearGradient id="paint0_linear_759_6730" x1="43.1862" y1="46.0094" x2="-5.74553" y2="21.4115" gradientUnits="userSpaceOnUse">
<stop stop-color="#FF51E3"/>
<stop offset="1" stop-color="#1B4DFF"/>
</linearGradient>
</defs>
</svg>
