<svg width="98" height="96" viewBox="0 0 98 96" fill="none" xmlns="http://www.w3.org/2000/svg">
<path d="M10.1317 10.0393C15.7273 10.0393 20.2634 5.77077 20.2634 0.505273C20.2634 -4.76022 15.7273 -9.02875 10.1317 -9.02875C4.53611 -9.02875 0 -4.76022 0 0.505273C0 5.77077 4.53611 10.0393 10.1317 10.0393Z" fill="#6F31A0"/>
<path d="M32.5208 10.0393C38.1164 10.0393 42.6525 5.77077 42.6525 0.505273C42.6525 -4.76022 38.1164 -9.02875 32.5208 -9.02875C26.9253 -9.02875 22.3892 -4.76022 22.3892 0.505273C22.3892 5.77077 26.9253 10.0393 32.5208 10.0393Z" fill="#6F31A0"/>
<path d="M56.5333 9.91628C62.0566 9.07284 65.8076 4.17569 64.9113 -1.02182C64.0149 -6.21932 58.8108 -9.74898 53.2875 -8.90554C47.7642 -8.0621 44.0132 -3.16495 44.9095 2.03255C45.8059 7.23006 51.01 10.7597 56.5333 9.91628Z" fill="#6F31A0"/>
<path d="M77.2999 10.0393C82.8955 10.0393 87.4316 5.77077 87.4316 0.505273C87.4316 -4.76022 82.8955 -9.02875 77.2999 -9.02875C71.7043 -9.02875 67.1682 -4.76022 67.1682 0.505273C67.1682 5.77077 71.7043 10.0393 77.2999 10.0393Z" fill="#6F31A0"/>
<path d="M99.6891 10.0393C105.285 10.0393 109.821 5.77077 109.821 0.505273C109.821 -4.76022 105.285 -9.02875 99.6891 -9.02875C94.0935 -9.02875 89.5574 -4.76022 89.5574 0.505273C89.5574 5.77077 94.0935 10.0393 99.6891 10.0393Z" fill="#6F31A0"/>
<path d="M10.1317 31.2867C15.7273 31.2867 20.2634 27.0181 20.2634 21.7526C20.2634 16.4872 15.7273 12.2186 10.1317 12.2186C4.53611 12.2186 0 16.4872 0 21.7526C0 27.0181 4.53611 31.2867 10.1317 31.2867Z" fill="#6F31A0"/>
<path d="M32.5208 31.2867C38.1164 31.2867 42.6525 27.0181 42.6525 21.7526C42.6525 16.4872 38.1164 12.2186 32.5208 12.2186C26.9253 12.2186 22.3892 16.4872 22.3892 21.7526C22.3892 27.0181 26.9253 31.2867 32.5208 31.2867Z" fill="#6F31A0"/>
<path d="M54.9105 31.2867C60.5061 31.2867 65.0422 27.0181 65.0422 21.7526C65.0422 16.4872 60.5061 12.2186 54.9105 12.2186C49.3149 12.2186 44.7788 16.4872 44.7788 21.7526C44.7788 27.0181 49.3149 31.2867 54.9105 31.2867Z" fill="#6F31A0"/>
<path d="M77.2999 31.2867C82.8955 31.2867 87.4316 27.0181 87.4316 21.7526C87.4316 16.4872 82.8955 12.2186 77.2999 12.2186C71.7043 12.2186 67.1682 16.4872 67.1682 21.7526C67.1682 27.0181 71.7043 31.2867 77.2999 31.2867Z" fill="#6F31A0"/>
<path d="M99.6891 31.2867C105.285 31.2867 109.821 27.0181 109.821 21.7526C109.821 16.4872 105.285 12.2186 99.6891 12.2186C94.0935 12.2186 89.5574 16.4872 89.5574 21.7526C89.5574 27.0181 94.0935 31.2867 99.6891 31.2867Z" fill="#6F31A0"/>
<path d="M10.1317 52.534C15.7273 52.534 20.2634 48.2655 20.2634 43C20.2634 37.7345 15.7273 33.466 10.1317 33.466C4.53611 33.466 0 37.7345 0 43C0 48.2655 4.53611 52.534 10.1317 52.534Z" fill="#6F31A0"/>
<path d="M32.5208 52.534C38.1164 52.534 42.6525 48.2655 42.6525 43C42.6525 37.7345 38.1164 33.466 32.5208 33.466C26.9253 33.466 22.3892 37.7345 22.3892 43C22.3892 48.2655 26.9253 52.534 32.5208 52.534Z" fill="#6F31A0"/>
<path d="M54.9105 52.534C60.5061 52.534 65.0422 48.2655 65.0422 43C65.0422 37.7345 60.5061 33.466 54.9105 33.466C49.3149 33.466 44.7788 37.7345 44.7788 43C44.7788 48.2655 49.3149 52.534 54.9105 52.534Z" fill="#6F31A0"/>
<path d="M77.2999 52.534C82.8955 52.534 87.4316 48.2655 87.4316 43C87.4316 37.7345 82.8955 33.466 77.2999 33.466C71.7043 33.466 67.1682 37.7345 67.1682 43C67.1682 48.2655 71.7043 52.534 77.2999 52.534Z" fill="#6F31A0"/>
<path d="M99.6891 52.534C105.285 52.534 109.821 48.2655 109.821 43C109.821 37.7345 105.285 33.466 99.6891 33.466C94.0935 33.466 89.5574 37.7345 89.5574 43C89.5574 48.2655 94.0935 52.534 99.6891 52.534Z" fill="#6F31A0"/>
<path d="M10.1317 73.7814C15.7273 73.7814 20.2634 69.5129 20.2634 64.2474C20.2634 58.9819 15.7273 54.7134 10.1317 54.7134C4.53611 54.7134 0 58.9819 0 64.2474C0 69.5129 4.53611 73.7814 10.1317 73.7814Z" fill="#6F31A0"/>
<path d="M32.5208 73.7814C38.1164 73.7814 42.6525 69.5129 42.6525 64.2474C42.6525 58.9819 38.1164 54.7134 32.5208 54.7134C26.9253 54.7134 22.3892 58.9819 22.3892 64.2474C22.3892 69.5129 26.9253 73.7814 32.5208 73.7814Z" fill="#6F31A0"/>
<path d="M56.5336 73.6582C62.0569 72.8147 65.8078 67.9176 64.9115 62.7201C64.0152 57.5226 58.811 53.9929 53.2877 54.8363C47.7644 55.6798 44.0135 60.5769 44.9098 65.7744C45.8061 70.9719 51.0102 74.5016 56.5336 73.6582Z" fill="#6F31A0"/>
<path d="M77.2999 73.7814C82.8955 73.7814 87.4316 69.5129 87.4316 64.2474C87.4316 58.9819 82.8955 54.7134 77.2999 54.7134C71.7043 54.7134 67.1682 58.9819 67.1682 64.2474C67.1682 69.5129 71.7043 73.7814 77.2999 73.7814Z" fill="#6F31A0"/>
<path d="M99.6891 73.7814C105.285 73.7814 109.821 69.5129 109.821 64.2474C109.821 58.9819 105.285 54.7134 99.6891 54.7134C94.0935 54.7134 89.5574 58.9819 89.5574 64.2474C89.5574 69.5129 94.0935 73.7814 99.6891 73.7814Z" fill="#6F31A0"/>
<path d="M10.1317 95.0285C15.7273 95.0285 20.2634 90.76 20.2634 85.4945C20.2634 80.229 15.7273 75.9604 10.1317 75.9604C4.53611 75.9604 0 80.229 0 85.4945C0 90.76 4.53611 95.0285 10.1317 95.0285Z" fill="#6F31A0"/>
<path d="M32.5208 95.0285C38.1164 95.0285 42.6525 90.76 42.6525 85.4945C42.6525 80.229 38.1164 75.9604 32.5208 75.9604C26.9253 75.9604 22.3892 80.229 22.3892 85.4945C22.3892 90.76 26.9253 95.0285 32.5208 95.0285Z" fill="#6F31A0"/>
<path d="M54.9105 95.0285C60.5061 95.0285 65.0422 90.76 65.0422 85.4945C65.0422 80.229 60.5061 75.9604 54.9105 75.9604C49.3149 75.9604 44.7788 80.229 44.7788 85.4945C44.7788 90.76 49.3149 95.0285 54.9105 95.0285Z" fill="#6F31A0"/>
<path d="M77.2999 95.0285C82.8955 95.0285 87.4316 90.76 87.4316 85.4945C87.4316 80.229 82.8955 75.9604 77.2999 75.9604C71.7043 75.9604 67.1682 80.229 67.1682 85.4945C67.1682 90.76 71.7043 95.0285 77.2999 95.0285Z" fill="#6F31A0"/>
<path d="M99.6891 95.0285C105.285 95.0285 109.821 90.76 109.821 85.4945C109.821 80.229 105.285 75.9604 99.6891 75.9604C94.0935 75.9604 89.5574 80.229 89.5574 85.4945C89.5574 90.76 94.0935 95.0285 99.6891 95.0285Z" fill="#6F31A0"/>
</svg>
