<svg width="40" height="40" viewBox="0 0 40 40" fill="none" xmlns="http://www.w3.org/2000/svg">
<path d="M0 8C0 3.58172 3.58172 0 8 0H32C36.4183 0 40 3.58172 40 8V32C40 36.4183 36.4183 40 32 40H8C3.58172 40 0 36.4183 0 32V8Z" fill="#D92D20"/>
<path d="M24.758 11.2585C27.0243 12.2712 28.8745 14.031 29.9995 16.2437C31.1245 18.4564 31.4562 20.9882 30.9391 23.4161C30.422 25.8439 29.0875 28.0208 27.1586 29.5832C25.2296 31.1455 22.8229 31.9986 20.3406 32C18.2171 32.0002 16.1403 31.3766 14.368 30.2067C12.5958 29.0368 11.2062 27.3722 10.3718 25.4194C9.53746 23.4667 9.295 21.3119 9.67459 19.2225C10.0542 17.1332 11.0391 15.2014 12.507 13.6669C13.5185 15.0795 14.8528 16.2301 16.3989 17.0227C16.4257 15.2864 16.8354 13.5775 17.5987 12.0179C18.3621 10.4582 19.4603 9.08632 20.8149 8C21.8483 9.38679 23.2003 10.5044 24.7567 11.2585" stroke="white" stroke-width="1.5" stroke-linecap="round" stroke-linejoin="round"/>
<path d="M20.3414 28.0583C21.5932 28.0604 22.7988 27.5859 23.7134 26.7313C24.6281 25.8767 25.1831 24.706 25.2659 23.457C25.3487 22.208 24.953 20.9743 24.1592 20.0064C23.3653 19.0386 22.2329 18.4091 20.9918 18.246C19.6359 19.4608 18.7422 21.1075 18.4625 22.9064C17.4505 22.6576 16.498 22.2105 15.6599 21.5912C15.4164 22.3314 15.3519 23.1187 15.4717 23.8887C15.5915 24.6586 15.8922 25.3891 16.3491 26.0203C16.806 26.6515 17.4061 27.1653 18.1001 27.5196C18.7941 27.8739 19.5622 28.0585 20.3414 28.0583Z" stroke="white" stroke-width="1.5" stroke-linecap="round" stroke-linejoin="round"/>
</svg>
