<svg width="80" height="80" viewBox="0 0 80 80" fill="none" xmlns="http://www.w3.org/2000/svg">
<path d="M0 40C0 17.9086 17.9086 0 40 0C62.0914 0 80 17.9086 80 40C80 62.0914 62.0914 80 40 80C17.9086 80 0 62.0914 0 40Z" fill="white"/>
<path d="M45.9996 57.9991H33.9996M45.9996 57.9991V41.1991C45.9996 40.8808 45.8732 40.5756 45.6482 40.3505C45.4231 40.1255 45.1179 39.9991 44.7996 39.9991H35.1996C34.8814 39.9991 34.5761 40.1255 34.3511 40.3505C34.1261 40.5756 33.9996 40.8808 33.9996 41.1991V57.9991M45.9996 57.9991H56.7996C57.1179 57.9991 57.4231 57.8726 57.6482 57.6476C57.8732 57.4225 57.9996 57.1173 57.9996 56.7991V52.1991C57.9996 51.8808 57.8732 51.5756 57.6482 51.3505C57.4231 51.1255 57.1179 50.9991 56.7996 50.9991H47.1996C46.8814 50.9991 46.5761 51.1255 46.3511 51.3505C46.1261 51.5756 45.9996 51.8808 45.9996 52.1991V57.9991ZM33.9996 57.9991V48.1991C33.9996 47.8808 33.8732 47.5756 33.6482 47.3505C33.4231 47.1255 33.1179 46.9991 32.7996 46.9991H23.1996C22.8814 46.9991 22.5761 47.1255 22.3511 47.3505C22.1261 47.5756 21.9996 47.8808 21.9996 48.1991V56.7991C21.9996 57.1173 22.1261 57.4225 22.3511 57.6476C22.5761 57.8726 22.8814 57.9991 23.1996 57.9991H33.9996ZM37.6116 26.2251L39.4296 22.3711C39.4787 22.2609 39.5587 22.1673 39.6598 22.1016C39.761 22.0359 39.879 22.001 39.9996 22.001C40.1202 22.001 40.2383 22.0359 40.3394 22.1016C40.4406 22.1673 40.5206 22.2609 40.5696 22.3711L42.3896 26.2251L46.4536 26.8471C46.9756 26.9271 47.1836 27.5991 46.8056 27.9831L43.8656 30.9831L44.5596 35.2191C44.6476 35.7631 44.1036 36.1791 43.6356 35.9211L39.9996 33.9211L36.3636 35.9211C35.8976 36.1771 35.3516 35.7631 35.4396 35.2191L36.1336 30.9831L33.1936 27.9831C32.8136 27.5991 33.0236 26.9271 33.5436 26.8471L37.6116 26.2251Z" stroke="#EC4A0A" stroke-width="3" stroke-linecap="round" stroke-linejoin="round"/>
</svg>
