<svg width="80" height="80" viewBox="0 0 80 80" fill="none" xmlns="http://www.w3.org/2000/svg">
<path d="M0 40C0 17.9086 17.9086 0 40 0C62.0914 0 80 17.9086 80 40C80 62.0914 62.0914 80 40 80C17.9086 80 0 62.0914 0 40Z" fill="white"/>
<path d="M57.886 49.67C56.7898 43.127 53.657 37.0968 48.934 32.438C47.9 31.432 47.384 30.93 46.242 30.466C45.1 30 44.118 30 42.156 30H37.844C35.882 30 34.9 30 33.758 30.466C32.618 30.93 32.098 31.432 31.066 32.438C26.3429 37.0968 23.2102 43.127 22.114 49.67C21.14 55.546 26.56 60 32.616 60H47.384C53.442 60 58.864 55.546 57.884 49.67" stroke="#027A48" stroke-width="3" stroke-linecap="round" stroke-linejoin="round"/>
<path d="M30.514 24.886C30.1 24.286 29.502 23.47 30.738 23.286C32.008 23.094 33.326 23.962 34.618 23.946C35.784 23.928 36.378 23.41 37.018 22.67C37.69 21.892 38.73 20 40 20C41.27 20 42.31 21.892 42.982 22.67C43.622 23.41 44.216 23.93 45.382 23.944C46.674 23.964 47.992 23.094 49.262 23.284C50.498 23.47 49.9 24.284 49.486 24.884L47.622 27.602C46.822 28.762 46.424 29.342 45.588 29.672C44.752 30.002 43.674 30 41.516 30H38.484C36.324 30 35.246 30 34.412 29.672C33.578 29.344 33.178 28.76 32.378 27.6L30.514 24.886Z" stroke="#027A48" stroke-width="3" stroke-linejoin="round"/>
<path d="M34.8571 50V39.9643C34.8571 39.751 34.9288 39.5438 35.061 39.3751C35.1932 39.2064 35.3784 39.0858 35.5876 39.0323C35.7967 38.9788 36.0179 38.9954 36.2165 39.0795C36.415 39.1636 36.5797 39.3104 36.6846 39.4968L42.3154 49.5032C42.4203 49.6896 42.585 49.8364 42.7835 49.9205C42.9821 50.0046 43.2033 50.0212 43.4124 49.9677C43.6216 49.9142 43.8068 49.7936 43.939 49.6249C44.0712 49.4562 44.1429 49.249 44.1429 49.0357V39M33 42.6667H46M33 46.3333H46" stroke="#027A48" stroke-width="2.4" stroke-linecap="round" stroke-linejoin="round"/>
</svg>
