<svg width="80" height="80" viewBox="0 0 80 80" fill="none" xmlns="http://www.w3.org/2000/svg">
<path d="M0 40C0 17.9086 17.9086 0 40 0C62.0914 0 80 17.9086 80 40C80 62.0914 62.0914 80 40 80C17.9086 80 0 62.0914 0 40Z" fill="white"/>
<path d="M26.6667 33.3334C26.6667 28.62 26.6667 26.2617 28.1317 24.7984C29.5951 23.3334 31.9534 23.3334 36.6667 23.3334H43.3334C48.0467 23.3334 50.4051 23.3334 51.8684 24.7984C53.3334 26.2617 53.3334 28.62 53.3334 33.3334V46.6667C53.3334 51.38 53.3334 53.7384 51.8684 55.2017C50.4051 56.6667 48.0467 56.6667 43.3334 56.6667H36.6667C31.9534 56.6667 29.5951 56.6667 28.1317 55.2017C26.6667 53.7384 26.6667 51.38 26.6667 46.6667V33.3334Z" stroke="#6F31A0" stroke-width="3"/>
<path d="M53.1634 46.6667H33.1634C31.6134 46.6667 30.8384 46.6667 30.2017 46.8367C29.3539 47.0641 28.5809 47.5106 27.9604 48.1314C27.3398 48.7523 26.8937 49.5255 26.6667 50.3734" stroke="#6F31A0" stroke-width="3"/>
<path d="M33.3335 31.6667H46.6668M33.3335 37.5001H41.6668" stroke="#6F31A0" stroke-width="3" stroke-linecap="round"/>
</svg>
