<svg width="96" height="82" viewBox="0 0 96 82" fill="none" xmlns="http://www.w3.org/2000/svg">
<path d="M46.9815 5.96582C48.7615 5.96582 50.4686 6.67294 51.7273 7.93161C52.986 9.19029 53.6931 10.8974 53.6931 12.6775V58.9132C53.6931 60.6932 52.986 62.4003 51.7273 63.659C50.4686 64.9177 48.7615 65.6248 46.9815 65.6248H24.6093C22.8293 65.6248 21.1222 64.9177 19.8635 63.659C18.6048 62.4003 17.8977 60.6932 17.8977 58.9132V12.6775C17.8977 10.8974 18.6048 9.19029 19.8635 7.93161C21.1222 6.67294 22.8293 5.96582 24.6093 5.96582H46.9815ZM39.5241 53.693H32.0667C31.4999 53.6932 30.9543 53.9085 30.5401 54.2955C30.1259 54.6824 29.874 55.2122 29.8354 55.7777C29.7968 56.3432 29.9742 56.9023 30.3319 57.342C30.6896 57.7817 31.2009 58.0693 31.7625 58.1465L32.0667 58.1674H39.5241C40.1174 58.1674 40.6865 57.9317 41.106 57.5122C41.5256 57.0926 41.7613 56.5236 41.7613 55.9302C41.7613 55.3369 41.5256 54.7678 41.106 54.3483C40.6865 53.9287 40.1174 53.693 39.5241 53.693ZM43.2528 26.8435H28.338C27.9425 26.8435 27.5631 27.0006 27.2834 27.2803C27.0037 27.56 26.8466 27.9394 26.8466 28.335V46.2326C26.8466 46.6282 27.0037 47.0076 27.2834 47.2873C27.5631 47.567 27.9425 47.7241 28.338 47.7241H43.2528C43.6483 47.7241 44.0277 47.567 44.3074 47.2873C44.5871 47.0076 44.7443 46.6282 44.7443 46.2326V28.335C44.7443 27.9394 44.5871 27.56 44.3074 27.2803C44.0277 27.0006 43.6483 26.8435 43.2528 26.8435ZM43.2528 14.9147H28.338C27.9425 14.9147 27.5631 15.0718 27.2834 15.3515C27.0037 15.6312 26.8466 16.0106 26.8466 16.4061V22.3631C26.8466 22.7587 27.0037 23.138 27.2834 23.4177C27.5631 23.6974 27.9425 23.8546 28.338 23.8546H43.2528C43.6483 23.8546 44.0277 23.6974 44.3074 23.4177C44.5871 23.138 44.7443 22.7587 44.7443 22.3631V16.4061C44.7443 16.0106 44.5871 15.6312 44.3074 15.3515C44.0277 15.0718 43.6483 14.9147 43.2528 14.9147Z" fill="#039855"/>
<g clip-path="url(#clip0_240_706)">
<path d="M56.5592 47.6157C57.8066 46.4419 59.8993 46.5286 61.0992 47.8038L66.0602 53.0761C66.1485 51.3663 67.7764 49.6348 70.1191 49.8839C70.6146 47.9953 72.8119 47.1365 74.2268 47.6565C76.3757 44.7411 79.08 45.2746 81.5967 47.9493C81.7331 48.0943 82.2456 48.6604 82.3813 48.8038C85.4692 52.0676 84.5614 54.4074 86.5057 57.2407C86.9902 57.9468 86.8849 58.9017 86.2611 59.4887L77.2042 68.0107L77.2041 68.0107C76.2338 68.9226 74.7821 69.2337 73.4748 68.6861C71.3535 67.8065 66.145 66.0846 64.0492 66.8498C62.7011 67.3421 61.4511 67.1657 60.5257 66.1831C58.8247 64.3768 59.5096 61.3899 61.8666 60.5293C62.486 60.3032 63.1598 60.14 63.8855 60.0386L56.4709 52.1587C55.3058 50.9205 55.3298 48.7725 56.5592 47.6157ZM77.2462 69.5641L87.3842 60.0247C88.0841 59.3662 89.1853 59.3997 89.8438 60.0996L92.2287 62.6341C92.8872 63.334 92.8537 64.4352 92.1539 65.0938L82.0158 74.6331C81.316 75.2917 80.2147 75.2582 79.5562 74.5583L77.1713 72.0238C76.5128 71.3239 76.5463 70.2227 77.2462 69.5641ZM87.5081 62.6956C86.9248 63.2444 86.8969 64.1621 87.4457 64.7454C87.9945 65.3286 88.9122 65.3565 89.4954 64.8077C90.0787 64.2589 90.1066 63.3412 89.5578 62.758C89.009 62.1747 88.0913 62.1468 87.5081 62.6956Z" fill="#039855"/>
</g>
<defs>
<clipPath id="clip0_240_706">
<rect width="27.8409" height="37.1211" fill="white" transform="translate(49.3965 54.3555) rotate(-43.2574)"/>
</clipPath>
</defs>
</svg>
