<svg width="45" height="34" viewBox="0 0 45 34" fill="none" xmlns="http://www.w3.org/2000/svg">
<path d="M11.4775 19.262C10.9698 18.1338 8.34106 18.1338 6.36669 18.1338C4.39232 18.1338 1.76359 18.1338 1.2559 19.262C0.748206 19.8374 0.5 22.8948 0.5 25.4333C0.5 27.9718 0.748206 31.0744 1.2559 31.6046C1.76359 32.7328 4.39232 32.7328 6.36669 32.7328C8.34106 32.7328 10.9698 32.7328 11.4775 31.6046C11.9852 31.0292 12.2334 27.9718 12.2334 25.4333C12.2334 22.8948 11.9852 19.8374 11.4775 19.262Z" fill="#FF52A1" stroke="#231F20" stroke-miterlimit="10"/>
<path d="M27.6108 11.1501C27.1031 9.31109 24.4744 9.2998 22.5 9.2998C20.5256 9.2998 17.8969 9.29981 17.3892 11.1501C16.8589 12.1203 16.6333 16.9716 16.6333 21.0332C16.6333 25.0947 16.8815 29.9912 17.3892 30.9163C17.8969 32.7553 20.5256 32.7666 22.5 32.7666C24.4744 32.7666 27.1031 32.7666 27.6108 30.9163C28.1185 29.9912 28.3667 25.0947 28.3667 21.0332C28.3667 16.9716 28.141 12.1203 27.6108 11.1501Z" fill="#FF52A1" stroke="#231F20" stroke-miterlimit="10"/>
<path d="M43.7441 3.09488C43.2364 0.522564 40.6077 0.5 38.6333 0.5C36.6589 0.5 34.0302 0.5 33.5225 3.04975C33.0148 4.31335 32.7666 11.0487 32.7666 16.5883C32.7666 22.1278 33.0148 28.9083 33.5225 30.1268C34.0302 32.654 36.6589 32.6765 38.6333 32.6765C40.6077 32.6765 43.2364 32.6765 43.7441 30.1268C44.2518 28.8632 44.5 22.1278 44.5 16.5883C44.5 11.0487 44.2518 4.31335 43.7441 3.09488Z" fill="#FFE236" stroke="#231F20" stroke-miterlimit="10"/>
<path d="M40.2129 3.09473C41.1493 3.09473 41.3411 3.30909 41.5667 5.14807" stroke="white" stroke-miterlimit="10" stroke-linecap="round"/>
<path d="M24.373 12.1206C25.2982 12.1206 25.5577 12.335 25.7269 14.1739" stroke="white" stroke-miterlimit="10" stroke-linecap="round"/>
<path d="M7.94629 20.7285C8.87142 20.7285 9.13091 20.9429 9.30014 22.7819" stroke="white" stroke-miterlimit="10" stroke-linecap="round"/>
</svg>
