<svg width="56" height="56" viewBox="0 0 56 56" fill="none" xmlns="http://www.w3.org/2000/svg">
<path d="M0 8C0 3.58172 3.58172 0 8 0H48C52.4183 0 56 3.58172 56 8V48C56 52.4183 52.4183 56 48 56H8C3.58172 56 0 52.4183 0 48V8Z" fill="#F5FAFF"/>
<path fill-rule="evenodd" clip-rule="evenodd" d="M41.2591 25.1097C39.9062 26.4626 37.9248 28.1664 35.9976 29.6822C34.4296 30.914 32.8491 32.0645 31.6464 32.8036C31.6151 30.7115 30.7215 28.6111 29.0554 26.9449C27.4038 25.2934 25.3243 24.3998 23.251 24.3538C23.9901 23.1554 25.1364 21.5811 26.3661 20.0172C27.8778 18.0985 29.5773 16.1233 30.924 14.7766C31.4213 14.2793 32.0957 14 32.799 14C33.5022 14 34.1766 14.2793 34.6739 14.7766L41.2591 21.3598C41.7564 21.857 42.0357 22.5315 42.0357 23.2347C42.0357 23.9379 41.7564 24.6124 41.2591 25.1097Z" fill="#2859C5"/>
<path d="M29.0551 26.9447C32.3916 30.2812 32.6296 35.3674 29.0551 38.6141C24.635 42.6291 17.5257 42.2637 14.446 41.5538C13.7361 38.4742 13.3707 31.3648 17.3858 26.9447C20.6325 23.3682 25.7165 23.6083 29.0551 26.9447Z" fill="#8FBFFA"/>
<path fill-rule="evenodd" clip-rule="evenodd" d="M25.5245 33.6781C25.5245 35.7034 24.3845 36.8434 22.3572 36.8434C21.9257 36.8434 21.5366 36.7933 21.19 36.693L16.0517 41.8314C15.513 41.7642 14.9778 41.6709 14.4482 41.5516C14.3338 41.0439 14.2432 40.5311 14.1768 40.0149L19.3422 34.8494C19.2362 34.4682 19.1849 34.0738 19.1898 33.6781C19.1898 31.6528 20.3298 30.5107 22.3572 30.5107C24.3845 30.5107 25.5245 31.6507 25.5245 33.6781Z" fill="#2859C5"/>
</svg>
