<svg width="56" height="56" viewBox="0 0 56 56" fill="none" xmlns="http://www.w3.org/2000/svg">
<path d="M0 8C0 3.58172 3.58172 0 8 0H48C52.4183 0 56 3.58172 56 8V48C56 52.4183 52.4183 56 48 56H8C3.58172 56 0 52.4183 0 48V8Z" fill="#FEF3F2"/>
<path fill-rule="evenodd" clip-rule="evenodd" d="M21.6382 16.4434H21.5686L21.5011 16.4521L20.4777 16.5827L19.2345 16.7395C18.477 16.8282 17.7738 17.1775 17.2456 17.7277C16.7173 18.2778 16.3967 18.9945 16.3387 19.755C15.8871 26.0458 15.8871 32.3609 16.3387 38.6516C16.393 39.4175 16.7189 40.1388 17.2578 40.6856C17.7967 41.2325 18.5131 41.569 19.2781 41.6345C25.1045 42.1222 30.4388 42.1222 36.263 41.6345C37.028 41.569 37.7444 41.2325 38.2833 40.6856C38.8222 40.1388 39.1481 39.4175 39.2024 38.6516C39.654 32.3609 39.654 26.0458 39.2024 19.755C39.1445 18.9948 38.8242 18.2784 38.2964 17.7283C37.7685 17.1782 37.0659 16.8287 36.3088 16.7395L35.0677 16.5827L34.0444 16.4521L33.9747 16.4434H21.6382Z" fill="#FECDCA"/>
<path d="M22.3313 16.8577C22.3313 15.2792 23.6115 14.0011 25.1901 14.0011H30.3633C30.7452 13.9905 31.1254 14.0567 31.4813 14.1955C31.8372 14.3344 32.1617 14.5432 32.4356 14.8096C32.7094 15.076 32.9271 15.3946 33.0757 15.7466C33.2244 16.0985 33.301 16.4767 33.301 16.8588C33.301 17.2408 33.2244 17.619 33.0757 17.971C32.9271 18.3229 32.7094 18.6415 32.4356 18.9079C32.1617 19.1743 31.8372 19.3831 31.4813 19.522C31.1254 19.6609 30.7452 19.727 30.3633 19.7165H25.1879C24.8124 19.717 24.4405 19.6435 24.0935 19.5C23.7466 19.3565 23.4313 19.1459 23.1659 18.8803C22.9005 18.6147 22.6902 18.2993 22.547 17.9522C22.4037 17.6051 22.3304 17.2332 22.3313 16.8577ZM26.5814 36.0896C25.8019 36.0069 25.2402 35.3319 25.214 34.5459C25.1966 33.945 25.1821 33.3491 25.1705 32.7584C24.568 32.7469 23.9656 32.7316 23.3633 32.7126C22.5773 32.6887 21.9002 32.1248 21.8175 31.3453C21.7327 30.5412 21.7327 29.7304 21.8175 28.9264C21.9002 28.1425 22.5773 27.583 23.3633 27.559C23.9686 27.5387 24.571 27.5235 25.1705 27.5133C25.1821 26.9211 25.1966 26.3245 25.214 25.7236C25.2402 24.9398 25.8019 24.2626 26.5814 24.1799C27.3862 24.095 28.1977 24.095 29.0025 24.1799C29.782 24.2626 30.3459 24.9376 30.3698 25.7236C30.3872 26.3245 30.4018 26.9211 30.4134 27.5133C31.0012 27.5249 31.5927 27.5394 32.1879 27.5568C32.9717 27.583 33.6488 28.1447 33.7316 28.9242C33.8186 29.7407 33.8186 30.531 33.7316 31.3453C33.6488 32.1248 32.9739 32.6887 32.1879 32.7126C31.5927 32.7301 31.002 32.7446 30.4156 32.7562L30.3698 34.5459C30.3459 35.3297 29.782 36.0069 29.0025 36.0896C28.1977 36.1745 27.3862 36.1745 26.5814 36.0896Z" fill="#D92D20"/>
</svg>
