<svg width="80" height="73" viewBox="0 0 80 73" fill="none" xmlns="http://www.w3.org/2000/svg">
<path d="M59.75 -4.5L44 19.25H51.875L67.625 -4.5H59.75Z" fill="#428BC1"/>
<path d="M51.875 -4.5L36 19.25H44L59.75 -4.5H51.875Z" fill="#E8E8E8"/>
<path d="M44 -4.5L28.125 19.25H36L51.875 -4.5H44Z" fill="#ED4C5C"/>
<path d="M25.5 14C24.75 14 24.125 14.625 24.125 15.375V27.25C24.125 28 24.75 28.625 25.5 28.625H54.5C55.25 28.625 55.875 28 55.875 27.25V15.375C55.875 14.625 55.25 14 54.5 14H25.5ZM53.125 23.125C53.125 23.875 52.5 24.5 51.75 24.5H28C27.25 24.5 26.625 23.875 26.625 23.125V17.875C26.625 17.125 27.25 16.5 28 16.5H51.75C52.5 16.5 53.125 17.125 53.125 17.875V23.125Z" fill="#FFC200"/>
<path d="M28.125 19.25H36L20.25 -4.5H12.375L28.125 19.25Z" fill="#ED4C5C"/>
<path d="M36 19.25H44L28.125 -4.5H20.25L36 19.25Z" fill="#E8E8E8"/>
<path opacity="0.5" d="M41.375 -0.5L37.375 5.375L46.625 19.25H51.875L53.125 17.25L41.375 -0.5Z" fill="#3E4347"/>
<path d="M44 19.25H51.875L36 -4.5H28.125L44 19.25Z" fill="#428BC1"/>
<path d="M40 70.5C53.6 70.5 64.625 59.475 64.625 45.875C64.625 32.275 53.6 21.25 40 21.25C26.4 21.25 15.375 32.275 15.375 45.875C15.375 59.475 26.4 70.5 40 70.5Z" fill="#FFC200"/>
<path d="M40.375 23.5C27.75 23.5 17.625 33.75 17.625 46.25C17.625 50 18.5 53.5 20.125 56.625C19.375 54.125 18.875 51.5 18.875 48.75C18.875 35.375 29.125 24.5 42.25 23.5H40.375Z" fill="#E68A00"/>
<path d="M57.5 31.75C63.875 43 60.625 57.5 49.5 64.875C47.25 66.375 44.75 67.5 42.25 68.25C45.75 67.875 49.125 66.625 52.25 64.5C62.75 57.5 65.5 43.5 58.625 33.25L57.5 31.75Z" fill="#FFE394"/>
<path d="M40 35.875V27.875L36 40.375L37.75 42.625L40 35.875Z" fill="#F2B200"/>
<path d="M42.25 42.625L44 40.375L40 27.875V35.875L42.25 42.625Z" fill="#E68A00"/>
<path d="M43.5 46.75L46.5 48.125L57.125 40.375L49.25 42.625L43.5 46.75Z" fill="#C47500"/>
<path d="M49.25 42.625L57.125 40.375H44L42.25 42.625H49.25Z" fill="#FFE394"/>
<path d="M37.75 42.625L36 40.375H22.875L30.75 42.625H37.75Z" fill="#FFD252"/>
<path d="M30.75 42.625L22.875 40.375L33.375 48.125L36.5 46.75L30.75 42.625Z" fill="#FFDB75"/>
<path d="M43.5 46.75L45.75 53.5L50.625 60.625L46.5 48.125L43.5 46.75Z" fill="#E68A00"/>
<path d="M40 49.375V52.875L50.625 60.625L45.75 53.5L40 49.375ZM36.5 46.75L33.375 48.125L29.375 60.625L34.25 53.5L36.5 46.75Z" fill="#F2B200"/>
<path d="M34.25 53.5L29.375 60.625L40 52.875V49.375L34.25 53.5Z" fill="#E68A00"/>
<path d="M42.25 42.625L40 35.875L37.75 42.625H30.75L36.5 46.75L34.25 53.5L40 49.375L45.75 53.5L43.5 46.75L49.25 42.625H42.25Z" fill="#FFCE31"/>
</svg>
