<svg width="64" height="64" viewBox="0 0 64 64" fill="none" xmlns="http://www.w3.org/2000/svg">
<path fill-rule="evenodd" clip-rule="evenodd" d="M32 5C24.8391 5 17.9716 7.84463 12.9081 12.9081C7.84463 17.9716 5 24.8391 5 32C5 39.1609 7.84463 46.0283 12.9081 51.0919C17.9716 56.1553 24.8391 59 32 59C39.1609 59 46.0283 56.1553 51.0919 51.0919C56.1553 46.0283 59 39.1609 59 32C59 24.8391 56.1553 17.9716 51.0919 12.9081C46.0283 7.84463 39.1609 5 32 5ZM37.0816 25.5417L32 16.8301L26.9182 25.5417L17.5082 28.4371L23.9725 34.9014L21.8051 45.7383L32 41.139L42.1948 45.7383L40.0273 34.9014L46.4916 28.4371L37.0816 25.5417Z" fill="url(#paint0_linear_419_8343)"/>
<defs>
<linearGradient id="paint0_linear_419_8343" x1="7.0745" y1="9.36275" x2="68.621" y2="44.0533" gradientUnits="userSpaceOnUse">
<stop stop-color="#FF9D14"/>
<stop offset="1" stop-color="#F07C00"/>
</linearGradient>
</defs>
</svg>
