<svg width="40" height="40" viewBox="0 0 40 40" fill="none" xmlns="http://www.w3.org/2000/svg">
<path d="M0 8C0 3.58172 3.58172 0 8 0H32C36.4183 0 40 3.58172 40 8V32C40 36.4183 36.4183 40 32 40H8C3.58172 40 0 36.4183 0 32V8Z" fill="#1570EF"/>
<path d="M12.2593 16.4084C12.2593 18.3491 13.0302 20.2103 14.4025 21.5826C15.7748 22.9549 17.636 23.7258 19.5767 23.7258C21.5174 23.7258 23.3787 22.9549 24.7509 21.5826C26.1232 20.2103 26.8942 18.3491 26.8942 16.4084C26.8942 14.4677 26.1232 12.6065 24.7509 11.2342C23.3787 9.86189 21.5174 9.09094 19.5767 9.09094C17.636 9.09094 15.7748 9.86189 14.4025 11.2342C13.0302 12.6065 12.2593 14.4677 12.2593 16.4084Z" stroke="white" stroke-width="1.5" stroke-linecap="round" stroke-linejoin="round"/>
<path d="M19.5767 23.7259L23.7233 30.9092L25.6722 26.9663L30.0602 27.2492L25.9136 20.0671M13.2374 20.0671L9.09082 27.2504L13.4788 26.9663L15.4277 30.9079L19.5743 23.7259" stroke="white" stroke-width="1.5" stroke-linecap="round" stroke-linejoin="round"/>
</svg>
