<svg width="53" height="59" viewBox="0 0 53 59" fill="none" xmlns="http://www.w3.org/2000/svg">
<path fill-rule="evenodd" clip-rule="evenodd" d="M26.2069 58.7919C29.5556 58.7919 32.8716 58.1323 35.9654 56.8508C39.0592 55.5693 41.8703 53.691 44.2381 51.3231C46.606 48.9552 48.4844 46.1441 49.7659 43.0503C51.0474 39.9565 51.7069 36.6406 51.7069 33.2919C51.7069 29.9432 51.0474 26.6273 49.7659 23.5335C48.4844 20.4397 46.606 17.6286 44.2381 15.2607C41.8703 12.8928 39.0592 11.0145 35.9654 9.73298C32.8716 8.45149 29.5556 7.79191 26.2069 7.79191C19.4439 7.79191 12.9579 10.4785 8.17571 15.2607C3.39353 20.0429 0.706929 26.5289 0.706929 33.2919C0.706929 40.0549 3.39353 46.541 8.17571 51.3231C12.9579 56.1053 19.4439 58.7919 26.2069 58.7919ZM29.1139 25.5711C28.3886 25.0684 27.6478 24.5883 26.8926 24.1317C23.8553 22.2844 22.3338 21.3607 20.9709 22.3836C19.6109 23.4036 19.4863 25.5484 19.2369 29.8296C19.1689 31.0394 19.1236 32.2266 19.1236 33.2919C19.1236 34.3572 19.1689 35.5444 19.2369 36.7542C19.4863 41.0382 19.6109 43.1802 20.9738 44.2031C22.3338 45.2231 23.8553 44.2994 26.8926 42.4521C27.6803 41.9732 28.4424 41.4859 29.1139 41.0127C29.8789 40.4744 30.7148 39.8284 31.5563 39.1427C34.6021 36.6579 36.1236 35.4169 36.1236 33.2919C36.1236 31.1669 34.6021 29.9259 31.5563 27.4411C30.7148 26.7554 29.8818 26.1094 29.1139 25.5711ZM15.2589 1.00041C15.5573 1.47804 15.6539 2.05458 15.5274 2.60338C15.401 3.15217 15.0619 3.62833 14.5846 3.92724L3.25126 11.0106C2.77334 11.3093 2.19634 11.4059 1.64718 11.2792C1.09803 11.1524 0.621712 10.8127 0.323012 10.3348C0.0243119 9.85691 -0.0723016 9.2799 0.0544261 8.73075C0.181154 8.1816 0.520841 7.70528 0.998762 7.40658L12.3321 0.323245C12.8101 0.0251206 13.3869 -0.0710173 13.9357 0.0559624C14.4845 0.182942 14.9605 0.522648 15.2589 1.00041ZM37.1549 1.00041C37.3027 0.763462 37.4958 0.557967 37.723 0.395675C37.9503 0.233383 38.2073 0.117478 38.4794 0.0545877C38.7515 -0.0083031 39.0333 -0.0169466 39.3087 0.0291517C39.5842 0.07525 39.8478 0.175186 40.0846 0.323245L51.4179 7.40658C51.8958 7.70528 52.2355 8.1816 52.3623 8.73075C52.489 9.2799 52.3924 9.85691 52.0937 10.3348C51.9458 10.5715 51.7527 10.7767 51.5255 10.9387C51.2983 11.1007 51.0414 11.2164 50.7695 11.2792C50.2204 11.4059 49.6433 11.3093 49.1654 11.0106L37.8321 3.92724C37.3543 3.62878 37.0146 3.15283 36.8876 2.604C36.7607 2.05518 36.8568 1.47839 37.1549 1.00041Z" fill="#6F31A0"/>
</svg>
