<svg width="29" height="30" viewBox="0 0 29 30" fill="none" xmlns="http://www.w3.org/2000/svg">
<g clip-path="url(#clip0_253_758)">
<path d="M-1.79936 14.7983C-1.80015 17.7403 -1.05125 20.613 0.372767 23.145L-1.93555 31.796L6.68949 29.4747C9.07508 30.8077 11.7479 31.5062 14.4641 31.5064H14.4712C23.4378 31.5064 30.7368 24.017 30.7406 14.8115C30.7423 10.3508 29.0515 6.15621 25.9795 3.00045C22.908 -0.155038 18.823 -1.89375 14.4706 -1.89578C5.50294 -1.89578 -1.79552 5.59325 -1.79923 14.7983" fill="url(#paint0_linear_253_758)"/>
<path d="M-2.3805 14.7929C-2.38142 17.8408 -1.60568 20.8162 -0.130888 23.4388L-2.52197 32.4L6.41233 29.9954C8.87402 31.3731 11.6456 32.0995 14.4659 32.1006H14.4732C23.7614 32.1006 31.3226 24.3418 31.3266 14.8067C31.3282 10.1858 29.5765 5.8404 26.3948 2.57159C23.2126 -0.696824 18.9815 -2.4981 14.4732 -2.5C5.18334 -2.5 -2.37679 5.25776 -2.3805 14.7929ZM2.94021 22.9871L2.60661 22.4436C1.20428 20.1548 0.464106 17.5099 0.465164 14.794C0.468073 6.86862 6.75174 0.420695 14.4785 0.420695C18.2203 0.422324 21.7369 1.91959 24.3818 4.63616C27.0266 7.353 28.482 10.9645 28.4811 14.8057C28.4776 22.731 22.1938 29.1798 14.4732 29.1798H14.4676C11.9537 29.1784 9.48819 28.4854 7.33801 27.1759L6.82632 26.8644L1.52452 28.2912L2.94021 22.9871Z" fill="url(#paint1_linear_253_758)"/>
<path d="M10.2601 7.56332C9.94461 6.8436 9.6126 6.82908 9.31259 6.81645C9.06692 6.8056 8.78608 6.80641 8.50551 6.80641C8.22467 6.80641 7.76838 6.91485 7.38269 7.34712C6.99661 7.77979 5.90869 8.82538 5.90869 10.952C5.90869 13.0786 7.41773 15.1339 7.62809 15.4226C7.83872 15.7107 10.5413 20.2145 14.8216 21.9471C18.3788 23.3869 19.1028 23.1005 19.8748 23.0283C20.647 22.9564 22.3664 21.983 22.7172 20.9737C23.0682 19.9645 23.0682 19.0994 22.963 18.9186C22.8577 18.7385 22.5769 18.6303 22.1557 18.4143C21.7346 18.1982 19.6642 17.1523 19.2782 17.0081C18.8921 16.8639 18.6114 16.792 18.3306 17.2248C18.0498 17.657 17.2433 18.6303 16.9975 18.9186C16.752 19.2076 16.5062 19.2435 16.0852 19.0273C15.6638 18.8104 14.3076 18.3546 12.6986 16.8821C11.4468 15.7364 10.6016 14.3215 10.3559 13.8887C10.1103 13.4566 10.3296 13.2223 10.5408 13.0069C10.73 12.8132 10.962 12.5022 11.1728 12.2499C11.3828 11.9974 11.4528 11.8173 11.5933 11.5291C11.7338 11.2405 11.6635 10.9881 11.5584 10.7719C11.4529 10.5557 10.6345 8.41795 10.2601 7.56332Z" fill="white"/>
</g>
<defs>
<linearGradient id="paint0_linear_253_758" x1="14.4025" y1="31.796" x2="14.4025" y2="-1.89578" gradientUnits="userSpaceOnUse">
<stop stop-color="#1FAF38"/>
<stop offset="1" stop-color="#60D669"/>
</linearGradient>
<linearGradient id="paint1_linear_253_758" x1="14.4023" y1="32.4" x2="14.4023" y2="-2.5" gradientUnits="userSpaceOnUse">
<stop stop-color="#F9F9F9"/>
<stop offset="1" stop-color="white"/>
</linearGradient>
<clipPath id="clip0_253_758">
<rect width="29" height="30" fill="white"/>
</clipPath>
</defs>
</svg>
